<svg width="19" height="19" viewBox="0 0 19 19" fill="none" xmlns="http://www.w3.org/2000/svg">
<path fill-rule="evenodd" clip-rule="evenodd" d="M8.02263 0.449476C6.55622 0.63624 5.15207 1.16102 3.92869 1.9796C3.24853 2.43476 2.00447 3.67926 1.54947 4.35966C0.877434 5.3648 0.401619 6.48941 0.145395 7.67835C-0.0354442 8.51755 -0.0354442 10.3697 0.145395 11.2089C0.540037 13.0402 1.32311 14.4764 2.65145 15.8052C3.97979 17.1341 5.41549 17.9174 7.24619 18.3122C8.0851 18.4931 9.93654 18.4931 10.7754 18.3122C12.6061 17.9174 14.0418 17.1341 15.3702 15.8052C16.6985 14.4764 17.4816 13.0402 17.8762 11.2089C18.0571 10.3697 18.0571 8.51755 17.8762 7.67835C17.4816 5.847 16.6985 4.41079 15.3702 3.08197C14.0654 1.77674 12.6931 1.01499 10.9166 0.609832C10.3274 0.475461 8.57933 0.378583 8.02263 0.449476ZM7.49324 2.44591L8.6226 3.27947L8.63997 4.82576L8.65733 6.37206L7.48117 7.21938C6.83426 7.68541 6.26223 8.07709 6.20986 8.08972C6.0821 8.12065 3.42062 7.26507 3.31968 7.16056C3.27592 7.11523 3.04623 6.4928 2.80935 5.77745C2.45734 4.71448 2.39438 4.45633 2.46482 4.36524C3.32533 3.25264 4.48596 2.35228 5.7639 1.80583C6.01625 1.69794 6.25447 1.61031 6.29329 1.61102C6.33211 1.61179 6.87209 1.98751 7.49324 2.44591ZM12.7165 2.03355C13.7601 2.55373 14.866 3.43827 15.4544 4.22353L15.6434 4.47575L15.2125 5.77695C14.9755 6.49259 14.7457 7.11523 14.702 7.16056C14.601 7.26507 11.9395 8.12065 11.8118 8.08972C11.7594 8.07709 11.1874 7.68541 10.5405 7.21938L9.36431 6.37206L9.38167 4.82576L9.39904 3.27947L10.5284 2.44415C11.4409 1.76918 11.6916 1.61582 11.8342 1.64526C11.9313 1.66531 12.3283 1.84 12.7165 2.03355ZM4.65452 8.40705L5.98032 8.83897L6.44223 10.2771L6.90414 11.7152L6.72421 11.9739C6.62525 12.1163 6.23104 12.6617 5.84818 13.186L5.15214 14.1392L3.66407 14.1583L2.17599 14.1773L1.92054 13.7567C1.24059 12.637 0.803319 11.2447 0.738098 9.99211L0.717064 9.58737L1.87974 8.73899C2.75239 8.10229 3.07821 7.90119 3.18557 7.9329C3.26434 7.95613 3.9253 8.16951 4.65452 8.40705ZM16.1489 8.74033C16.7457 9.17522 17.2533 9.55107 17.277 9.57558C17.3513 9.65268 17.2103 10.8461 17.0522 11.4771C16.8689 12.2092 16.5283 13.0346 16.1388 13.6904L15.8496 14.1773L14.3596 14.1583L12.8695 14.1392L12.1735 13.186C11.7906 12.6617 11.3964 12.1163 11.2974 11.9739L11.1175 11.7152L11.58 10.2751L12.0426 8.83509L13.4736 8.36687C14.2607 8.10935 14.9405 7.91009 14.9842 7.92414C15.028 7.93819 15.5521 8.30551 16.1489 8.74033ZM11.199 13.0617C11.5678 13.5721 11.9726 14.1358 12.0987 14.3146L12.3279 14.6396L11.8853 16.0135L11.4427 17.3873L10.9503 17.5123C10.1371 17.7187 9.10632 17.796 8.28732 17.7117C7.88936 17.6708 7.34226 17.5811 7.07135 17.5123L6.57895 17.3873L6.13631 16.0135L5.69374 14.6396L5.92293 14.3146C6.049 14.1358 6.45387 13.5721 6.82268 13.0617L7.49324 12.134H9.01082H10.5284L11.199 13.0617Z" fill="white"/>
</svg>
