<svg width="20" height="18" viewBox="0 0 20 18" fill="none" xmlns="http://www.w3.org/2000/svg">
<path d="M18.8942 8.1355L19.5522 7.77565L18.8942 8.1355ZM18.8941 9.70448L19.5522 10.0644L18.8941 9.70448ZM1.29531 8.13536L1.95333 8.49523L1.29531 8.13536ZM1.2953 9.70434L0.637266 10.0642H0.637266L1.2953 9.70434ZM17.6183 5.22899C17.3217 4.93982 16.8469 4.94582 16.5577 5.24239C16.2686 5.53896 16.2746 6.01379 16.5711 6.30296L17.6183 5.22899ZM7.78101 13.8795C7.37977 13.7767 6.97111 14.0185 6.86823 14.4198C6.76535 14.821 7.00721 15.2297 7.40845 15.3325L7.78101 13.8795ZM12.6987 3.26106L12.5046 3.98551L12.6987 3.26106ZM5.16737 13.6288L4.79847 14.2818L5.59947 13.0158L5.16737 13.6288ZM1.95333 8.49523C3.52626 5.61911 6.58262 3.66992 10.0947 3.66992V2.16992C6.01354 2.16992 2.4632 4.43679 0.637284 7.77549L1.95333 8.49523ZM18.2361 9.34462C16.6632 12.2207 13.6068 14.1699 10.0948 14.1699V15.6699C14.1759 15.6699 17.7263 13.4031 19.5522 10.0644L18.2361 9.34462ZM18.2361 8.49536C18.3809 8.76014 18.3809 9.07984 18.2361 9.34462L19.5522 10.0644C19.9422 9.3511 19.9422 8.4889 19.5522 7.77565L18.2361 8.49536ZM0.637284 7.77549C0.247214 8.48874 0.247207 9.35095 0.637266 10.0642L1.95332 9.34449C1.80852 9.07971 1.80853 8.76001 1.95333 8.49523L0.637284 7.77549ZM16.5711 6.30296C17.2294 6.9448 17.7921 7.68339 18.2361 8.49536L19.5522 7.77565C19.036 6.83171 18.3823 5.97395 17.6183 5.22899L16.5711 6.30296ZM10.0948 14.1699C9.29492 14.1699 8.51979 14.069 7.78101 13.8795L7.40845 15.3325C8.26795 15.5529 9.16822 15.6699 10.0948 15.6699V14.1699ZM10.0947 3.66992C10.9293 3.66992 11.737 3.77983 12.5046 3.98551L12.8928 2.53662C11.9997 2.29731 11.0615 2.16992 10.0947 2.16992V3.66992ZM4.02468 11.9103C3.19001 11.1877 2.48624 10.319 1.95332 9.34449L0.637266 10.0642C1.25675 11.197 2.07416 12.2057 3.04289 13.0444L4.02468 11.9103ZM5.53627 12.9758C4.99654 12.6709 4.49033 12.3134 4.02468 11.9103L3.04289 13.0444C3.58345 13.5123 4.17132 13.9275 4.79847 14.2818L5.53627 12.9758ZM3.10168 13.0903L4.73527 14.2418L5.59947 13.0158L3.96589 11.8643L3.10168 13.0903ZM12.5046 3.98551C13.2216 4.17763 13.9044 4.45351 14.5418 4.80211L15.2615 3.48607C14.5207 3.08092 13.7268 2.76008 12.8928 2.53662L12.5046 3.98551Z" fill="#2B3F6C"/>
<path d="M17.5596 1.38477L2.55957 16.3848" stroke="#2B3F6C" stroke-width="1.5" stroke-linecap="round" stroke-linejoin="round"/>
<path d="M7.09473 8.91992C7.09473 7.26307 8.43787 5.91992 10.0947 5.91992" stroke="#2B3F6C" stroke-width="1.5" stroke-linecap="round"/>
</svg>
