<svg width="21" height="16" viewBox="0 0 21 16" fill="none" xmlns="http://www.w3.org/2000/svg">
<path fill-rule="evenodd" clip-rule="evenodd" d="M8.63234 0.240325C8.45378 0.262719 7.90593 0.333023 7.4149 0.396454C3.68701 0.878172 0.931858 2.33885 0.260317 4.18927C0.0762396 4.69661 0.0712891 4.78879 0.0712891 7.67878C0.0712891 10.5688 0.0762396 10.661 0.260317 11.1683C0.932507 13.0206 3.466 14.3664 7.45548 14.9903C8.57252 15.1651 12.3445 15.1651 13.4615 14.9903C17.451 14.3664 19.9845 13.0206 20.6567 11.1683C20.8408 10.661 20.8457 10.5688 20.8457 7.67878C20.8457 4.78879 20.8408 4.69661 20.6567 4.18927C20.006 2.39634 17.5915 1.06211 13.8615 0.434471C12.9852 0.287091 9.33919 0.151689 8.63234 0.240325ZM12.5367 1.95326C14.7991 2.1848 16.7963 2.74849 18.0716 3.51538C20.0118 4.68224 20.0118 5.67588 18.0716 6.84273C14.4102 9.04447 6.50677 9.04447 2.84543 6.84273C0.905236 5.67588 0.905236 4.68224 2.84543 3.51538C4.9775 2.23334 8.97606 1.58872 12.5367 1.95326ZM2.26106 8.32726C4.03447 9.43578 6.55774 10.0364 9.91065 10.1481L11.7571 10.2095V11.0273V11.845H12.4064H13.0557V10.9658C13.0557 10.4822 13.0831 10.0665 13.1166 10.0419C13.1501 10.0173 13.4422 9.96478 13.7659 9.92531L14.3543 9.85344V11.5141V13.1747L13.847 13.2428C10.9102 13.6366 8.76472 13.591 6.28576 13.082C3.90388 12.5931 1.86807 11.5334 1.48523 10.5833C1.36105 10.2751 1.30959 7.72722 1.42914 7.80544C1.46258 7.82731 1.83698 8.06218 2.26106 8.32726ZM19.4293 10.5892C19.3152 10.8724 18.8845 11.3201 18.4327 11.6249L18.2501 11.7481V10.1869V8.62576L18.8791 8.21883L19.5082 7.812L19.531 9.04634C19.5485 9.99582 19.525 10.3518 19.4293 10.5892ZM16.9333 10.767L16.9109 12.3971L16.6229 12.525C16.4644 12.5953 16.1814 12.6862 15.9939 12.7268L15.6529 12.8007V11.1482V9.49567L16.2008 9.32954C16.502 9.2382 16.7952 9.15748 16.8521 9.15019C16.9329 9.13987 16.9507 9.49473 16.9333 10.767Z" fill="white"/>
</svg>
