<svg width="53" height="23" viewBox="0 0 53 23" fill="none" xmlns="http://www.w3.org/2000/svg">
<g clip-path="url(#clip0_540_2213)">
<path fill-rule="evenodd" clip-rule="evenodd" d="M31.6352 8.95933L31.7118 10.1658C31.7214 10.2328 31.7214 10.2807 31.7214 10.3764C31.7214 10.4721 31.7405 10.4817 31.7405 10.5775C31.7405 10.8455 31.7884 11.1232 31.7884 11.4008L31.8171 11.7934C31.8362 11.937 31.8362 12.0711 31.8362 12.2147C31.8362 12.3296 31.865 12.4924 31.8745 12.6073L31.9033 13.2009C31.9033 13.2966 31.9224 13.3158 31.9224 13.402L31.9703 14.2253C31.9703 14.3211 31.9894 14.3307 31.9894 14.4264C31.9894 14.6657 32.0181 14.7807 32.0181 15.0391L32.0564 15.4508L30.3522 15.4508L30.6681 13.8232C30.716 13.5455 30.7831 13.287 30.8309 13.0093C30.85 12.8753 30.8788 12.7508 30.9075 12.6071C30.9362 12.4635 30.9649 12.3391 30.9841 12.1954L31.3001 10.5678C31.3575 10.2998 31.3958 10.0221 31.4628 9.75397L31.5778 9.15074C31.5873 9.11244 31.5873 9.10289 31.5969 9.04544L31.6256 8.94014L31.6352 8.95924L31.6352 8.95933ZM40.865 11.8125H39.2086C39.1416 11.8125 39.1703 11.7551 39.1703 11.6785L39.3618 8.64338C39.3618 8.54763 39.3809 8.53808 39.3809 8.45188L39.4384 7.437C39.4479 7.36995 39.4479 7.31254 39.4479 7.2359C39.4479 7.0636 39.4958 6.63271 39.4958 6.43166C39.4958 6.33596 39.5149 6.31676 39.5149 6.23061L39.5341 5.81892C39.5436 5.70402 39.5628 5.53167 39.5628 5.40722H41.3341C41.8224 5.40722 41.6788 5.77106 41.6788 6.15406L41.4586 9.58171C41.4586 9.65831 41.4681 9.72531 41.4586 9.80195C41.4107 10.2328 41.4107 10.7881 41.3628 11.2094C41.3341 11.4679 41.4394 11.803 40.865 11.803V11.8126L40.865 11.8125ZM29.2799 20.736C29.3182 20.5541 29.3565 20.353 29.3948 20.1711C29.4331 19.97 29.4714 19.7881 29.5097 19.587C29.548 19.3955 29.5863 19.204 29.6246 19.003C29.6629 18.8115 29.7012 18.6104 29.7491 18.4285L32.2767 18.4285C32.2767 18.5913 32.3246 18.8498 32.3246 19.0125C32.3342 19.2998 32.382 19.5965 32.3916 19.8838C32.4012 20.0753 32.4395 20.2764 32.4395 20.4774C32.4395 20.5636 32.4299 20.736 32.5065 20.736H38.548C38.6246 20.736 38.5959 20.6019 38.6151 20.4104C38.6342 20.1711 38.6342 19.9125 38.6629 19.6732C38.6725 19.6158 38.6629 19.5487 38.6629 19.4913L38.73 18.5625C38.7491 18.3902 38.7396 18.17 38.7683 17.9977C38.797 17.8158 38.7874 17.6243 38.8066 17.4328C38.8162 17.3753 38.8066 17.3178 38.8162 17.2508L38.9119 15.7667C38.9119 15.6901 38.9119 15.6423 38.9215 15.5657C38.9502 15.355 38.9694 15.02 38.9694 14.8093H39.4098C39.4768 14.8093 39.4672 14.8955 39.4864 14.953L39.9747 17.0019C40.0321 17.2412 40.0991 17.5189 40.1566 17.7583C40.3481 18.5051 40.53 19.2423 40.6927 19.9987L40.8268 20.5636C40.8459 20.6306 40.8364 20.7263 40.9034 20.7263H44.7045C44.7045 20.6401 44.6374 20.4487 44.6087 20.3529L44.2162 18.8881C44.063 18.2657 43.8715 17.6529 43.7183 17.0306C43.5651 16.4179 43.3736 15.7955 43.23 15.1827C43.2013 15.0583 43.1534 14.9338 43.1247 14.8093C43.5939 14.8093 43.9481 14.6849 44.2066 14.4743C44.6375 14.1296 44.9055 13.603 44.896 13.0189L45.1066 9.66786C45.1257 9.56256 45.1162 9.42851 45.1353 9.33277L45.1736 8.65293C45.1736 8.57633 45.1832 8.55723 45.1927 8.49974C45.2023 8.43273 45.1927 8.38484 45.2023 8.31784C45.2311 8.15509 45.2214 7.98274 45.2311 7.81995L45.2789 7.14975C45.2885 6.98696 45.2885 6.79546 45.3077 6.63271L45.3651 5.61782H46.5044C46.5044 5.93377 46.4565 6.24016 46.4565 6.55611L46.3895 7.4944C46.3704 7.65715 46.3799 7.81035 46.3704 7.9731L46.3033 8.91139C46.3033 9.08374 46.2938 9.24649 46.2746 9.39009L46.0449 13.1624C46.0257 13.2965 46.0257 13.4975 46.0161 13.6316C46.0161 13.7178 45.997 13.7465 45.997 13.8519L45.6906 18.8306C45.6811 18.9742 45.6523 19.1465 45.6523 19.2902L45.5949 20.2381C45.5758 20.3817 45.5662 20.554 45.5662 20.7168H49.3194C49.396 20.7168 49.3673 20.6115 49.3673 20.5253C49.3673 20.3721 49.4056 20.2189 49.4056 20.0466L49.4822 18.8593C49.5014 18.7349 49.511 18.5338 49.511 18.3902C49.511 18.304 49.5301 18.2657 49.5301 18.1508C49.5301 18.0359 49.5492 18.0072 49.5492 17.9115C49.5492 17.787 49.5588 17.5668 49.5779 17.4423C49.6066 17.2795 49.5875 17.1168 49.6066 16.954C49.6162 16.8104 49.6354 16.6476 49.6354 16.4944L49.6737 16.0157C49.6737 15.9104 49.6833 15.8721 49.6928 15.7955L49.7311 15.0583C49.7502 14.7806 49.7885 14.3976 49.7981 14.12L49.846 13.1625C49.8556 13.0189 49.8843 12.8561 49.8843 12.7029C49.8843 12.5401 49.913 12.3774 49.9226 12.2242C49.9322 11.8891 49.9609 11.6019 49.9705 11.2668L50.3056 6.06778C50.3152 5.98158 50.3152 5.91458 50.3152 5.81883C50.3152 5.73264 50.3343 5.69438 50.3343 5.57948H52.8237C52.7566 5.30183 52.7087 5.01459 52.6417 4.71779L52.3832 3.42521C52.3545 3.27201 52.3258 3.13797 52.297 2.98481C52.2683 2.85076 52.2396 2.69757 52.2108 2.56352C52.1821 2.41032 52.1342 2.26668 52.1342 2.11353H45.2405C45.231 2.18057 45.2118 2.22847 45.1927 2.28587C45.1353 2.44862 45.0586 2.63057 45.0203 2.79332H44.9821C44.9629 2.72627 44.8959 2.67838 44.848 2.63052C44.7427 2.52522 44.6183 2.45822 44.4938 2.39117C44.1778 2.19968 43.6799 2.11353 43.2586 2.11353H36.0394C36.0394 2.37207 36.0011 2.57312 36.0011 2.81247C36.0011 2.88911 35.9915 2.91781 35.9915 2.96566C35.9819 3.03271 35.9915 3.09011 35.9819 3.14761C35.9724 3.24331 35.9628 3.39655 35.9532 3.4923C35.9436 3.54971 35.9532 3.6072 35.9532 3.6646L35.8958 4.54549C35.8671 4.75613 35.8575 5.33062 35.8384 5.59867L35.8097 6.11571C35.8097 6.29761 35.7713 6.45081 35.7713 6.62312L35.666 8.19334C35.6565 8.48059 35.6086 8.77738 35.6181 9.06463C35.6181 9.35187 35.5798 9.64867 35.5703 9.93592L35.4362 12.004C35.4362 12.4157 35.3692 12.837 35.3692 13.2487H35.3501C35.3501 12.904 35.2256 12.2529 35.1969 11.8699L35.1682 11.6401C35.1586 11.5444 35.1586 11.4965 35.149 11.4104L34.8235 8.66253C34.7373 8.05929 34.699 7.4274 34.6033 6.83376L34.5458 6.37421L34.0575 2.23802C34.0384 2.06567 34.0192 2.12312 33.6554 2.12312L30.0554 2.12308L29.4043 4.8135C28.8969 6.83372 28.4277 8.86349 27.9202 10.8933C27.8628 11.1136 27.8053 11.3433 27.7575 11.5635L26.6947 15.9391L26.6085 16.2837L25.6223 20.3337C25.6127 20.3625 25.5361 20.6688 25.5361 20.6688C25.5457 20.7167 25.5361 20.6976 25.5935 20.6976H29.2798V20.7359L29.2799 20.736Z" fill="white"/>
<path fill-rule="evenodd" clip-rule="evenodd" d="M1.37056 18.7539C1.38015 18.6678 1.39926 18.5816 1.41845 18.505L1.47586 18.189C1.48546 18.1411 1.48546 18.0837 1.50461 18.0263C1.51416 17.9784 1.52371 17.9401 1.53331 17.9018C1.5429 17.8156 1.56201 17.7295 1.57161 17.6338C1.5812 17.5476 1.60991 17.4614 1.6195 17.3944C1.6195 17.337 1.7057 16.8487 1.72481 16.8104C1.72481 16.7338 1.83975 16.0157 1.85885 15.9774C1.86845 15.8434 1.91626 15.6902 1.92586 15.5562C1.93545 15.4029 1.9929 15.2019 2.01205 15.0487C2.02165 14.9147 2.05995 14.7423 2.07909 14.6083C2.08869 14.5317 2.0982 14.4743 2.11739 14.3881C2.12699 14.3306 2.14614 14.2731 2.14614 14.1966C2.17484 14.1008 2.18444 13.9189 2.21314 13.8423C2.22274 13.6987 2.26104 13.555 2.28019 13.4114C2.28974 13.354 2.29929 13.3157 2.30889 13.2487C2.31849 13.2008 2.30889 13.1625 2.33764 13.1433C2.33764 13.0189 2.38549 12.8944 2.38549 12.7891C2.41423 12.6263 2.45253 12.454 2.47168 12.2912C2.49083 12.1763 2.50998 12.071 2.52913 11.9561C2.53869 11.9178 2.54824 11.8317 2.55784 11.7934C2.56743 11.736 2.57699 11.7168 2.57699 11.6594C2.58654 11.5732 2.60569 11.487 2.62484 11.4008C2.63443 11.3338 2.66314 11.2285 2.66314 11.1711C2.68229 11.0753 2.70148 10.97 2.71103 10.8838C2.72063 10.6923 2.79723 10.5008 2.79723 10.2998C2.81633 10.2519 2.84512 10.0891 2.84512 10.0412C2.86423 9.94548 2.88342 9.84018 2.89302 9.75399L2.97921 9.22739C2.98877 9.18909 2.98877 9.1795 2.98877 9.1412C2.98877 9.12205 2.98877 9.12205 2.99836 9.1029L3.00796 9.08375C3.00796 8.94015 3.05581 8.7678 3.07496 8.63375C3.07496 8.57635 3.12286 8.29866 3.14201 8.26991C3.14201 8.14546 3.18031 8.09761 3.18031 7.98267C3.1899 7.93477 3.2282 7.76247 3.2282 7.70502C3.2282 7.63802 3.24731 7.60931 3.2569 7.54227L3.3335 7.14012C3.3335 7.01567 3.35265 6.95818 3.37184 6.84328C3.3814 6.80499 3.41014 6.62304 3.4197 6.57523C3.42929 6.48904 3.44844 6.43159 3.458 6.33588C3.46759 6.26884 3.54419 5.73265 3.57294 5.70395C3.57294 5.61775 3.58249 5.59864 3.60164 5.52205C3.61124 5.455 3.64953 5.1199 3.67828 5.09116C3.67828 4.98586 3.69739 4.90926 3.71658 4.80391C3.73569 4.70816 3.73569 4.64116 3.76443 4.56456L3.86978 3.96137C3.86978 3.88473 3.95597 3.36773 3.97508 3.33903C3.97508 3.25284 4.05168 2.79329 4.08038 2.73584C4.08038 2.66879 4.12828 2.37199 4.14742 2.33365C4.14742 2.2475 4.17613 2.09435 4.19532 2.00815C4.19532 1.9507 4.31977 1.24221 4.32933 1.20387C4.32933 1.06986 4.37722 0.907069 4.39637 0.773021C4.39637 0.696423 4.40592 0.715572 4.41548 0.658081H25.24L25.1443 1.28998C25.1251 1.38572 25.1539 1.32828 25.106 1.36657L25.1156 1.41447C25.0868 1.55807 25.0102 2.19001 24.9623 2.25701C24.9719 2.34321 24.8857 2.91765 24.8474 2.9751C24.857 3.07081 24.7708 3.54959 24.7421 3.66445L24.6847 3.98999L24.5028 4.98577C24.5124 5.05277 24.4262 5.57937 24.3975 5.62726C24.407 5.77086 24.3496 5.9911 24.3208 6.1443L24.2347 6.6517C24.2251 6.67085 24.2251 6.67085 24.2251 6.69004L24.2155 6.71875C24.2251 6.79535 24.2059 6.97729 24.1581 7.0347C24.1676 7.14 24.1198 7.34109 24.1006 7.44639C24.0815 7.56129 24.0049 8.11659 23.9666 8.16444C23.9762 8.25063 23.9092 8.71018 23.8613 8.76767C23.8709 8.81553 23.823 9.20807 23.7751 9.26552C23.7942 9.38997 23.6794 9.85916 23.6602 10.0315C23.6315 10.1368 23.6219 10.2517 23.6028 10.357L23.5357 10.6921C23.5453 10.74 23.4878 11.2283 23.4304 11.3049C23.4495 11.3815 23.4208 11.5634 23.373 11.6208C23.3826 11.707 23.3539 11.8027 23.3443 11.8985L23.239 12.4251C23.2485 12.4921 23.2198 12.7123 23.1815 12.7602C23.1911 12.8559 23.1432 13.191 23.0953 13.258C23.1049 13.3538 23.0762 13.4591 23.057 13.5549C23.0474 13.6219 23.0283 13.7942 22.99 13.8421C22.9996 13.8996 22.99 13.9475 22.9804 14.0049C22.9804 14.0336 22.9708 14.0623 22.9613 14.0911C22.9517 14.1485 22.9613 14.1198 22.9326 14.1581C22.9422 14.2251 22.9326 14.2634 22.923 14.3209C22.923 14.34 22.9134 14.3783 22.9134 14.3975C22.9038 14.4549 22.9134 14.4262 22.8847 14.4645L22.8273 14.9145C22.789 15.0294 22.8656 14.8187 22.8177 14.9432C22.8177 14.9432 22.8081 14.9623 22.8081 14.9528C22.8081 14.9528 22.8081 14.9624 22.7985 14.9624C22.8081 15.0198 22.7985 15.0677 22.7889 15.1251L22.7506 15.2687C22.7697 15.3454 22.7027 15.7475 22.6644 15.8049C22.674 15.9007 22.607 16.3507 22.5591 16.4082C22.5687 16.5039 22.5208 16.8581 22.4729 16.9156C22.4825 16.9922 22.4633 17.1645 22.4251 17.222C22.4346 17.3082 22.4059 17.4135 22.3868 17.5092L22.3197 17.9305C22.3102 17.9975 22.2719 18.2656 22.2431 18.323C22.2623 18.4188 22.224 18.5433 22.2048 18.6486C22.1857 18.7443 22.1857 18.8784 22.1378 18.9454C22.1474 19.0316 22.1187 19.1274 22.1091 19.2135C22.0995 19.2901 22.09 19.405 22.0517 19.4528C22.0708 19.5678 22.0038 19.8071 21.9846 19.9316C21.9655 20.056 21.9655 20.2858 21.8984 20.372C21.908 20.4677 21.8601 20.822 21.8122 20.8794C21.8218 20.9656 21.7452 21.4443 21.7069 21.4922C21.7165 21.6071 21.6495 21.923 21.6303 22.0571C21.6112 22.2007 21.6399 22.2198 21.4963 22.2294H3.49612V22.2198C2.92164 22.2198 2.34719 22.2198 1.7823 22.2294H0.757812C0.767366 22.1528 0.786516 22.0666 0.805708 21.9804L0.882306 21.4826C0.89186 21.4443 0.91101 21.2719 0.930202 21.2528C0.930202 21.1954 0.997204 20.7549 1.0164 20.7262C1.0164 20.6592 1.0355 20.5634 1.0451 20.506C1.25575 19.2804 1.09299 20.3432 1.34194 18.7251L1.37064 18.7538L1.37056 18.7539ZM5.73651 20.4199H8.97271C9.97804 15.4699 11.3185 7.58048 12.2089 2.4007L9.0015 2.40066C9.03979 3.53999 5.88979 19.5677 5.74614 20.4295L5.73655 20.4199H5.73651ZM13.8365 15.1826C13.8078 15.2497 13.7982 15.3742 13.7886 15.4603C13.7791 15.5465 13.7408 15.6518 13.7408 15.7476C13.7408 15.805 13.712 15.8816 13.7025 15.9391C13.6929 16.0061 13.6737 16.0923 13.6642 16.1688C13.645 16.1976 13.5971 16.4944 13.5971 16.5614C13.5684 16.5997 13.4918 17.088 13.4918 17.1742L13.3865 17.7103C13.3674 17.8539 13.3195 17.9688 13.3386 18.1507C13.3673 18.438 13.6163 18.6199 13.9226 18.572C14.1524 18.5337 14.1333 18.5146 14.2865 18.4284C14.3439 18.3327 14.5737 18.1411 14.5546 17.988C14.5928 17.9305 14.6599 17.4901 14.6694 17.4231C14.6982 17.2986 14.7747 16.9157 14.7652 16.8199L14.7747 16.7912C14.7747 16.7816 14.8514 16.5614 14.8322 16.4273L14.8609 16.3316C14.8705 16.3029 14.8705 16.2646 14.8801 16.2263C14.8896 16.1592 14.9184 16.0827 14.8992 16.0156C14.9088 15.9965 14.9088 16.0156 14.9183 15.9773L14.9374 15.8911C14.947 15.8241 14.947 15.8241 14.947 15.7667C14.9949 15.7093 15.014 15.4507 15.0332 15.355C15.0523 15.2305 15.1194 14.9624 15.1098 14.8571L15.1768 14.5698C15.1959 14.4645 15.2247 14.3592 15.2151 14.2635C15.2439 14.2252 15.2439 14.1677 15.2342 14.1103C15.3204 13.9762 15.1864 13.4592 15.1385 13.3156C15.0906 13.1816 14.8417 12.7794 14.7651 12.7411C14.746 12.6933 14.5354 12.406 14.4875 12.3773C14.4683 12.3199 14.4875 12.3677 14.4492 12.3199L14.1811 11.9848L14.1141 11.8795C14.0279 11.7741 13.6258 11.2475 13.5874 11.2379C13.5683 11.1709 13.4055 10.9794 13.3481 10.9124C13.3002 10.855 13.1375 10.6251 13.0991 10.606C13.08 10.5677 12.8502 10.2422 12.8119 10.223C12.764 10.1081 12.6779 10.0028 12.6108 9.88795C12.5821 9.84005 12.5438 9.77305 12.5151 9.70601C12.496 9.65815 12.4672 9.5624 12.4385 9.52411C12.4002 9.30386 12.3811 9.19856 12.3906 8.95921L12.4768 8.34647L12.6204 7.54218C12.6491 7.40818 12.7257 7.06348 12.7066 6.94859C12.7545 6.88154 12.7928 6.57519 12.7928 6.4794C12.8311 6.4315 12.9077 5.94321 12.8981 5.87621C12.9651 5.77086 12.9938 5.32087 13.0417 5.15812C13.0608 5.02411 13.1375 4.72727 13.1279 4.61242C13.147 4.59331 13.1375 4.61242 13.147 4.57412L13.1853 4.41137C13.2045 4.34432 13.2332 4.26772 13.2237 4.20072C13.2524 4.16242 13.2428 4.18157 13.262 4.12408C13.2715 4.09538 13.2811 4.07623 13.2907 4.04748C13.3098 3.99007 13.329 3.95178 13.329 3.88473C13.3769 3.83683 13.4343 3.67408 13.463 3.59749L13.6162 3.31024C13.6641 3.2815 13.712 3.2049 13.7503 3.15704C13.7982 3.09 13.8365 3.0613 13.8939 3.0134C13.9418 2.9751 14.2098 2.7932 14.2194 2.77405C14.3056 2.74535 14.4013 2.67835 14.4971 2.64005C14.5928 2.6017 14.679 2.56341 14.7843 2.5347C15.0045 2.4677 15.196 2.439 15.4353 2.4198C16.1152 2.4007 16.8141 2.4198 17.5035 2.4198C18.1641 2.4198 18.7864 2.47721 19.1407 2.8602C19.2173 2.9368 19.38 3.15704 19.4279 3.29109C19.4662 3.40599 19.5141 3.49214 19.5428 3.61664C19.5716 3.75064 19.5811 3.87513 19.5811 4.03788C19.5811 4.09533 19.5716 4.20068 19.562 4.27723C19.5524 4.35383 19.5333 4.44958 19.5333 4.53578C19.5237 4.62197 19.495 4.72727 19.4854 4.81342C19.4758 4.90917 19.4567 5.04322 19.428 5.11982C19.428 5.18682 19.3993 5.29216 19.3897 5.36876C19.3706 5.46447 19.3514 5.56026 19.3418 5.64641C19.3322 5.67511 19.2939 5.89536 19.2939 5.93366C19.2843 6.0007 19.2652 6.07726 19.246 6.16341C19.2269 6.25916 19.2077 6.34535 19.2077 6.44106C19.179 6.52725 19.1694 6.64215 19.1503 6.74745C19.1312 6.8719 19.112 6.96769 19.0929 7.08255C19.0929 7.14959 19.0546 7.3123 19.045 7.36979C19.0354 7.42724 19.0354 7.44639 19.0259 7.51344C19.0163 7.56129 18.9971 7.61874 18.9971 7.68574C18.9876 7.75279 18.9684 7.83894 18.9492 7.91554C18.9301 8.00173 18.9109 8.09744 18.9109 8.17404C18.9014 8.23148 18.8822 8.30808 18.8631 8.38468L16.3067 8.39428C16.3067 8.21238 16.4216 7.88683 16.412 7.71444C16.4599 7.65704 16.5077 7.29315 16.4982 7.20704C16.5173 7.1783 16.5078 7.20704 16.5173 7.15915L16.5939 6.6517C16.6513 6.58466 16.6992 6.03896 16.7375 5.91446C16.7567 5.78042 16.8141 5.57937 16.8046 5.45487C16.8429 5.39747 16.8429 5.25382 16.8716 5.18682L16.8812 5.09107L16.9099 4.96662C16.9865 4.59322 16.8429 4.26768 16.4503 4.26768C16.1344 4.26768 15.8088 4.45918 15.7131 4.72727C15.694 4.77517 15.694 4.80387 15.6748 4.84217C15.6556 4.93792 15.6269 5.07196 15.6269 5.16771C15.6078 5.25391 15.5981 5.31131 15.579 5.40706C15.5599 5.50281 15.5407 5.57941 15.5407 5.68471L15.5024 5.82831L15.4736 6.00066C15.4545 6.12511 15.4258 6.24001 15.4162 6.35495C15.3875 6.37405 15.3971 6.43155 15.3875 6.4794C15.3779 6.5464 15.3684 6.56559 15.3588 6.623C15.3492 6.7092 15.3109 6.83365 15.3109 6.91984C15.2918 6.99644 15.2822 7.06344 15.263 7.15919C15.2439 7.2549 15.2247 7.33154 15.2247 7.43684C15.196 7.47514 15.1577 7.75279 15.1481 7.84853C15.1385 7.91554 15.1194 8.18363 15.1385 8.25068C15.1577 8.30808 15.1194 8.26978 15.1673 8.29857C15.1194 8.43258 15.2917 8.76772 15.3683 8.90176C15.4162 8.97836 15.3587 8.93047 15.4353 8.96881C15.4258 9.01666 15.4258 8.97836 15.4353 9.01666C15.4353 9.03581 15.4545 9.05496 15.4641 9.07411L15.9236 9.69645C15.9619 9.72515 15.8949 9.69645 15.9619 9.72515C15.9619 9.78256 16.1917 10.0507 16.2396 10.089L16.5843 10.4911C16.5843 10.5007 16.5651 10.5007 16.613 10.5677L17.0439 11.1039L17.2832 11.4008C17.3502 11.487 17.3215 11.4678 17.3789 11.4965C17.3885 11.5539 17.5226 11.7167 17.5609 11.7838C17.6375 11.8987 17.7045 12.0614 17.7619 12.0901C17.7428 12.1476 17.7523 12.1093 17.781 12.1763C17.8002 12.2051 17.8002 12.2146 17.8193 12.2625L17.9438 12.6167C17.9821 12.7604 17.9534 12.7699 18.0012 12.8083C17.9533 12.9232 17.9821 13.0955 17.9821 13.2199C17.9725 13.2966 17.963 13.3157 17.963 13.4115C17.9439 13.4402 17.8768 13.9093 17.8768 13.9859C17.8481 14.0147 17.8768 13.9764 17.8577 14.0243C17.8577 14.0338 17.8481 14.0913 17.8481 14.0913C17.8385 14.1583 17.829 14.1966 17.829 14.254C17.8099 14.2923 17.7428 14.6849 17.7428 14.7423C17.7237 14.819 17.7045 14.9339 17.6949 15.0296C17.6853 15.1349 17.647 15.2307 17.647 15.3551C17.6279 15.3743 17.6279 15.4221 17.6183 15.4604C17.6087 15.5179 17.6087 15.5466 17.5992 15.5945C17.58 15.6902 17.5704 15.7955 17.5513 15.8817C17.5513 15.9774 17.5034 16.1115 17.5034 16.2264C17.4843 16.2551 17.4555 16.4466 17.4555 16.504C17.4364 16.6381 17.3981 16.7721 17.3885 16.9157C17.3693 16.9636 17.3214 17.2508 17.3214 17.3274C17.2927 17.3465 17.2927 17.4231 17.2927 17.4615C17.2831 17.5285 17.2736 17.5572 17.264 17.6242C17.2449 17.7391 17.2161 17.8636 17.2066 17.9785C17.1874 18.0264 17.1683 18.1317 17.1587 18.1891C17.1396 18.2562 17.1108 18.3615 17.1013 18.4381L16.9385 18.8977C16.8523 19.1083 16.747 19.2328 16.7087 19.3285C16.6896 19.3381 16.5747 19.5009 16.546 19.5392C16.5077 19.587 16.4981 19.5966 16.4598 19.6445L16.3545 19.7594C16.2779 19.8647 15.9715 20.0849 15.8279 20.1423C15.7513 20.1711 15.6843 20.1902 15.6077 20.2381C15.5215 20.2477 15.1864 20.3625 14.88 20.3721L14.0279 20.3912C13.8651 20.3912 13.7598 20.4104 13.6162 20.4104L12.5055 20.4105C12.4002 20.4105 12.3811 20.3913 12.2853 20.3913C12.2374 20.3913 12.1034 20.3626 12.046 20.353C12.0076 20.3435 11.9789 20.3435 11.9311 20.3339C11.8832 20.3243 11.864 20.3052 11.8066 20.3052C11.4715 20.2286 11.3758 20.1137 11.2034 19.9892C11.1747 19.9701 11.1938 19.9797 11.1747 19.9701C11.146 19.9222 11.1747 19.9605 11.1364 19.9127C11.1268 19.8936 11.1173 19.8936 11.1077 19.8744L10.7821 19.2616C10.7725 19.1754 10.7438 19.0989 10.7342 19.0127C10.7246 18.917 10.7438 18.8308 10.7246 18.7446C10.7534 18.6872 10.7917 18.2467 10.8013 18.1414C10.8204 17.9882 10.897 17.6723 10.8875 17.5478C10.9258 17.4904 10.9545 17.2893 10.9449 17.2223L10.9545 17.1935C10.9545 17.1935 11.0407 16.8776 11.0215 16.7531C11.0598 16.7052 11.1555 16.1404 11.1459 16.0542L11.1842 15.9106C11.1938 15.8435 11.213 15.8053 11.1938 15.7478L11.2129 15.6904C11.2129 15.6808 11.2225 15.6425 11.2225 15.633C11.2321 15.5947 11.2321 15.5564 11.2416 15.518C11.2512 15.4414 11.28 15.3553 11.2704 15.2787C11.3183 15.2117 11.3661 14.8957 11.3566 14.8C11.3949 14.7426 11.4715 14.2063 11.4906 14.0914C11.548 14.0436 12.697 14.0723 12.764 14.0723H14.0662L13.9705 14.6372L13.9321 14.8575C13.913 14.9628 13.8747 15.0681 13.8747 15.183H13.8364L13.8365 15.1826Z" fill="white"/>
</g>
<defs>
<clipPath id="clip0_540_2213">
<rect width="52.0662" height="21.5714" fill="white" transform="translate(0.757812 0.658203)"/>
</clipPath>
</defs>
</svg>
