<svg width="235" height="64" viewBox="0 0 235 64" fill="none" xmlns="http://www.w3.org/2000/svg">
<path fill-rule="evenodd" clip-rule="evenodd" d="M178.7 44.0967C177.069 44.4058 175.835 45.3071 175.096 46.7284C174.538 47.7999 174.532 50.5836 175.085 51.6335C176.016 53.402 177.575 54.3034 179.725 54.3159C181.993 54.3292 183.701 53.3177 184.498 51.4899C185.046 50.2317 185.047 48.1556 184.5 46.8879C184.058 45.8634 182.89 44.7544 181.854 44.3765C181.005 44.0669 179.542 43.9371 178.7 44.0967ZM187.835 49.1816V54.2489H188.763H189.692L189.742 50.5956L189.792 46.9422L192.672 50.5956L195.552 54.2489H196.354H197.156V49.1816V44.1143H196.317H195.478V47.8272C195.478 50.9983 195.44 51.5052 195.22 51.3007C195.077 51.1692 193.729 49.4984 192.224 47.5879L189.487 44.1143H188.661H187.835V49.1816ZM200.512 49.1816V54.2489H203.96H207.409V53.5951V52.9412H204.799H202.189V48.5278V44.1143H201.35H200.512V49.1816ZM210.206 49.1816V54.2489H211.044H211.883V49.1816V44.1143H211.044H210.206V49.1816ZM215.239 49.1816V54.2489H216.074H216.91L216.96 50.5431L217.01 46.8373L219.902 50.5022L222.795 54.1672L223.68 54.2171L224.565 54.2671L224.516 49.2315L224.467 44.1961L223.585 44.1464L222.703 44.0967L222.653 47.7901L222.603 51.4833L219.713 47.8025L216.824 44.1215L216.031 44.1179L215.239 44.1143V49.1816ZM227.729 49.1816V54.2489H231.365H235V53.5951V52.9412H232.297H229.594V51.3884V49.8355H232.11H234.627V49.1816V48.5278H232.11H229.594V46.9749V45.422H232.297H235V44.7682V44.1143H231.365H227.729V49.1816ZM181.254 45.7646C181.814 46.0026 182.217 46.3397 182.571 46.868C183.03 47.5527 183.081 47.7839 183.081 49.1816C183.081 50.5939 183.033 50.8061 182.55 51.526C181.47 53.1371 178.848 53.4331 177.451 52.1019C176.533 51.228 176.118 49.577 176.456 48.1487C176.987 45.9067 179.107 44.8533 181.254 45.7646Z" fill="url(#paint0_linear_401_1326)"/>
<path fill-rule="evenodd" clip-rule="evenodd" d="M24.2864 2.79188C22.8496 1.18731 22.4136 0.609264 22.5156 0.44417C22.818 -0.0451918 27.6206 1.58678 31.5104 3.50082C40.573 7.96021 47.6703 14.3733 49.1056 19.3999C49.7179 21.5441 49.4842 24.891 48.2216 32.0615C46.3066 42.9373 45.0715 46.4193 42.3007 48.7525C41.3024 49.5932 40.069 50.2508 38.9564 50.5353C35.3082 51.4683 27.927 50.7717 16.1728 48.385C11.009 47.3364 8.37044 46.587 6.14342 45.5364C2.99305 44.0502 1.07879 41.8955 0.307807 38.9678C0.01237 37.8464 -0.0967058 34.6688 0.097548 32.8501C0.497237 29.1111 2.09084 20.1791 2.96378 16.786C3.87081 13.2604 4.97801 11.0906 6.78286 9.30157C7.58838 8.50307 7.91297 8.26913 8.87997 7.78975C10.6037 6.93545 11.5922 6.75775 14.6283 6.75665C17.8034 6.75545 20.3689 7.01756 25.1522 7.83184C26.3581 8.03717 27.6283 8.23844 27.975 8.27911C28.5625 8.34817 28.6054 8.33776 28.6054 8.12706C28.6054 7.74513 27.5098 6.39171 24.2864 2.79188ZM27.3447 29.5143C25.8452 28.7651 24.4464 28.2206 23.34 27.9554C22.3722 27.7235 21.482 27.678 21.0801 27.8402C20.3858 28.1204 19.5901 29.3726 19.2368 30.7416C18.6207 33.1279 19.5848 34.4355 23.354 36.3266C28.1451 38.7304 30.7676 38.7418 33.2708 36.3696C34.0356 35.6448 34.7352 34.6031 34.5387 34.4817C34.4831 34.4472 34.0256 34.5435 33.5221 34.6953C30.6172 35.5715 29.4362 35.7197 28.7397 35.295C27.9976 34.8425 28.0526 34.137 28.9358 32.7741C29.5613 31.8087 29.6671 31.4659 29.4792 31.0125C29.3105 30.6051 28.7727 30.2276 27.3447 29.5143ZM42.6364 34.9675C43.3395 34.1513 43.4028 34.0407 43.2524 33.8902C43.049 33.6869 41.1144 33.6116 40.0063 33.7637C37.1069 34.1619 36.2431 34.9512 36.6053 36.8708C36.8938 38.4001 37.7222 39.2033 39.2866 39.4711C41.0374 39.7707 42.7224 39.2004 44.2207 37.8013C45.5929 36.5197 45.6064 36.2566 44.2675 36.8848C43.2051 37.3834 42.5265 37.4746 41.9795 37.1925C41.701 37.0488 41.5862 36.9101 41.5604 36.686C41.5178 36.3139 41.6271 36.1394 42.6364 34.9675ZM9.99848 59.066C11.116 55.8702 13.451 54.2443 17.4383 53.8857C18.8194 53.7615 31.321 53.8503 32.6761 53.9939C33.9937 54.1336 34.9237 54.4063 36.019 54.9742C36.9476 55.4556 38.0782 56.4984 38.5867 57.3423C39.3549 58.6176 40.0431 60.9885 40.1558 62.7485C40.1794 63.1157 39.8773 63.4212 39.5099 63.4019L38.5483 63.3514C36.1562 63.2257 11.073 63.271 10.2032 63.4025C9.81125 63.4618 9.42899 63.4867 9.35357 63.458C9.02009 63.3305 9.39128 60.8029 9.99848 59.066Z" fill="url(#paint1_linear_401_1326)"/>
<path d="M84.3065 12.2551H68.4169V29.4755H84.3065V23.6264L90.1922 24.9345V28.1487C90.1922 30.6154 89.7655 32.2973 88.9123 33.2223C88.0155 34.1287 86.3525 34.5772 83.9147 34.5772H68.8087C66.3795 34.5772 64.7078 34.1287 63.7936 33.2223C62.9491 32.288 62.5225 30.6061 62.5225 28.158V13.8342C62.5225 11.3955 62.9491 9.71359 63.7936 8.79791C64.6991 7.87288 66.3708 7.41504 68.8087 7.41504H83.9147C86.3525 7.41504 88.0155 7.87288 88.9123 8.79791C89.7655 9.70424 90.1922 11.3955 90.1922 13.8342V16.4224L84.3065 17.4315V12.2551ZM99.1165 34.5772V12.3111H104.219V20.7859H120.021V12.3111H125.071V34.5772H120.021V25.2054H104.219V34.5772H99.1165ZM134.344 34.5772V12.3111H156.615V16.2635H139.446V21.1036H149.45V24.9438H139.446V30.4192H156.868V34.5772H134.344ZM181.821 16.3663H168.178V30.3164H181.821V25.5885L186.923 26.6911V29.3167C186.923 31.3349 186.549 32.7178 185.791 33.4746C185.042 34.2128 183.597 34.5772 181.464 34.5772H168.517C166.41 34.5772 164.991 34.2128 164.26 33.4746C163.502 32.7365 163.128 31.3536 163.128 29.3167V17.581C163.128 15.5627 163.502 14.1705 164.26 13.4137C164.991 12.6849 166.41 12.3111 168.517 12.3111H181.464C183.597 12.3111 185.042 12.6849 185.791 13.4137C186.549 14.1799 186.923 15.5627 186.923 17.581V19.7394L181.821 20.5149V16.3663ZM195.751 34.5772V12.3111H200.854V21.3185L212.956 12.3111H220.278L205.947 22.6266L221.897 34.5772H213.896L200.854 24.5233V34.5772H195.751Z" fill="url(#paint2_linear_401_1326)"/>
<path d="M78.7871 44.2372H67.4188V49.713H78.7871C79.6191 49.713 80.2155 49.5945 80.5689 49.3654C80.9002 49.0967 81.0696 48.6621 81.0696 48.0695V45.8887C81.0696 45.296 80.9002 44.8615 80.5689 44.5928C80.2155 44.3557 79.6191 44.2372 78.7871 44.2372ZM78.7945 53.4979H67.4188V59.3293H78.7945C79.7369 59.3293 80.3775 59.1871 80.6941 58.8868C81.0254 58.5787 81.1874 58.0414 81.1874 57.2907V55.5523C81.1874 54.7938 81.0254 54.2565 80.6941 53.9483C80.3701 53.6481 79.7295 53.4979 78.7945 53.4979ZM62.5225 63.4698V40.4998H80.8561C82.5348 40.4998 83.7718 40.8553 84.5596 41.5744C85.2959 42.2855 85.6714 43.4076 85.6714 44.9642V47.7534C85.6714 48.836 85.3548 49.7051 84.7142 50.3926C84.0589 51.0958 83.1459 51.5067 81.9826 51.6331C83.2122 51.807 84.162 52.289 84.8467 53.0633C85.5094 53.8219 85.8407 54.8096 85.8407 56.0343V58.9737C85.8407 60.4672 85.318 61.5971 84.2577 62.3635C83.2416 63.0984 81.666 63.4698 79.5307 63.4698H62.5225ZM92.2685 63.4698V44.6402H111.103V47.9826H96.5832V52.0756H105.043V55.3232H96.5832V59.9535H111.316V63.4698H92.2685ZM125.527 48.0221V63.4698H121.256V48.0221H112.796V44.6402H134.031V48.0221H125.527ZM157.688 48.0221H145.613V51.9887H157.018C158.822 51.9887 160.037 52.2969 160.677 52.9211C161.281 53.5453 161.583 54.7148 161.583 56.4373V59.0212C161.583 60.7279 161.266 61.8973 160.633 62.5374C160 63.1616 158.792 63.4698 157.018 63.4698H145.657C143.816 63.4698 142.594 63.1616 141.968 62.5374C141.327 61.9052 141.011 60.7358 141.011 59.0212V58.4838L144.825 57.7411V59.9535H157.732V55.6393H146.364C144.567 55.6393 143.337 55.3232 142.712 54.699C142.078 54.0668 141.754 52.8895 141.754 51.1906V49.0967C141.754 47.4453 142.078 46.2679 142.712 45.5726C143.337 44.9563 144.567 44.6402 146.364 44.6402H156.775C158.527 44.6402 159.742 44.9405 160.427 45.5331C161.053 46.1731 161.369 47.2398 161.369 48.7332V49.1836L157.688 50.0291V48.0221Z" fill="url(#paint3_linear_401_1326)"/>
<defs>
<linearGradient id="paint0_linear_401_1326" x1="155.018" y1="45.1553" x2="155.47" y2="55.5667" gradientUnits="userSpaceOnUse">
<stop stop-color="#04052E"/>
<stop offset="1" stop-color="#111FA2" stop-opacity="0.76"/>
</linearGradient>
<linearGradient id="paint1_linear_401_1326" x1="9.56324" y1="25.2975" x2="42.0646" y2="68.3517" gradientUnits="userSpaceOnUse">
<stop stop-color="#04052E"/>
<stop offset="1" stop-color="#12209C" stop-opacity="0.76"/>
</linearGradient>
<linearGradient id="paint2_linear_401_1326" x1="10.5928" y1="10.3908" x2="11.7857" y2="37.8791" gradientUnits="userSpaceOnUse">
<stop stop-color="#04052E"/>
<stop offset="1" stop-color="#111FA2" stop-opacity="0.76"/>
</linearGradient>
<linearGradient id="paint3_linear_401_1326" x1="30.2453" y1="43.0163" x2="31.6157" y2="66.225" gradientUnits="userSpaceOnUse">
<stop stop-color="#04052E"/>
<stop offset="1" stop-color="#111FA2" stop-opacity="0.76"/>
</linearGradient>
</defs>
</svg>
