<svg width="153" height="69" viewBox="0 0 153 69" fill="none" xmlns="http://www.w3.org/2000/svg">
<mask id="path-1-outside-1_245_6950" maskUnits="userSpaceOnUse" x="59.1455" y="15.3916" width="35" height="39" fill="black">
<rect fill="white" x="59.1455" y="15.3916" width="35" height="39"/>
<path fill-rule="evenodd" clip-rule="evenodd" d="M60.3847 16.6559C60.1649 16.8989 60.1455 18.3736 60.1455 34.9167C60.1455 52.1679 60.1565 52.9232 60.4099 53.1524C60.6524 53.3718 61.961 53.3916 76.2743 53.3916C91.107 53.3916 91.8989 53.3786 92.367 53.1275C93.168 52.6979 93.3877 52.1109 93.3877 50.3999C93.3877 49.0279 93.365 48.9091 93.0722 48.7524C92.8035 48.6086 92.7176 48.6318 92.4941 48.908C92.2829 49.1687 92.2314 49.4921 92.2314 50.5604C92.2314 51.4007 92.1677 51.9522 92.058 52.0619C91.9272 52.1927 89.8725 52.2354 83.6976 52.2354C75.9497 52.2354 75.4978 52.2212 75.2714 51.971C75.0535 51.7302 75.0322 50.7691 75.0322 41.1312C75.0322 30.7483 75.0374 30.5505 75.3213 30.2666C75.6034 29.9845 75.803 29.9775 83.6817 29.9775C91.3176 29.9775 91.7659 29.9918 91.9922 30.2419C92.2089 30.4812 92.2314 31.2731 92.2314 38.6247C92.2314 46.5811 92.2372 46.7489 92.5238 47.0356C92.7561 47.2678 92.875 47.2964 93.102 47.175C93.3815 47.0253 93.3877 46.8422 93.3871 38.6805C93.3867 30.6672 93.3756 30.3207 93.105 29.8769C92.5611 28.9849 92.2757 28.8989 89.6725 28.8425L87.3174 28.7915V23.1068C87.3174 17.5213 87.2633 16.7752 86.8386 16.5052C86.7442 16.4451 82.046 16.3951 76.398 16.3938C68.6013 16.3922 66.0873 16.4334 65.9557 16.565C65.6644 16.8563 65.7582 17.2569 66.1529 17.4069C66.3806 17.4935 70.3126 17.5479 76.3424 17.5479H86.1611V23.1765V28.8051L80.7773 28.8493C74.7981 28.8985 74.7296 28.909 74.2036 29.8716C73.9686 30.3016 73.9449 31.0508 73.9069 39.2637L73.8656 48.1885H67.5837H61.3018V32.8682V17.5479H62.4486C63.7637 17.5479 64.3369 17.3822 64.3369 17.0022C64.3369 16.479 64.0461 16.3916 62.307 16.3916C60.8599 16.3916 60.5904 16.4287 60.3847 16.6559ZM64.0117 20.5946C63.7196 20.7647 63.6806 21.1697 63.9322 21.4213C64.1792 21.6683 71.5766 21.6683 71.8236 21.4213C72.0841 21.1608 72.0326 20.7567 71.7175 20.5881C71.3448 20.3886 64.3553 20.3945 64.0117 20.5946ZM63.9322 23.2135C63.6718 23.4739 63.7232 24.878 64.0383 25.0467C64.4249 25.2535 83.327 25.2535 83.7136 25.0467C84.0287 24.878 84.0802 23.4739 83.8197 23.2135C83.569 22.9627 64.183 22.9627 63.9322 23.2135ZM78.4237 31.1269C77.7773 31.3887 77.7085 31.6454 77.6566 33.9891C77.6011 36.5036 77.6719 37.0977 78.0755 37.5013C78.3434 37.7692 78.5997 37.7822 83.6383 37.7822H88.9204L89.2751 37.4274C89.6257 37.0769 89.6299 37.0416 89.6299 34.4551C89.6299 33.0154 89.5661 31.7184 89.4884 31.573C89.4106 31.4276 89.1408 31.2368 88.8887 31.149C88.347 30.9602 78.8843 30.9401 78.4237 31.1269ZM88.4736 34.3857V36.626H83.6318H78.79V34.3857V32.1455H83.6318H88.4736V34.3857ZM64.7795 33.7103C63.0613 34.6319 63.6559 37.4932 65.5654 37.4932C67.475 37.4932 68.0696 34.6319 66.3514 33.7103C65.7316 33.3779 65.3992 33.3779 64.7795 33.7103ZM68.7697 33.9217C68.4864 34.1353 65.6377 40.8816 65.6377 41.3387C65.6377 41.7392 66.1584 41.9496 66.4407 41.6633C66.6855 41.415 69.54 34.6183 69.54 34.2838C69.54 33.9263 69.0618 33.7014 68.7697 33.9217ZM66.1917 35.0831C66.3458 35.406 66.3508 35.5775 66.2157 35.9038C65.922 36.6128 65.2443 36.6406 64.9325 35.9562C64.4573 34.9133 65.6996 34.0517 66.1917 35.0831ZM68.6851 38.469C66.9365 39.3643 67.6019 42.2601 69.5567 42.2621C71.3772 42.264 71.9355 39.2976 70.2763 38.4397C69.7151 38.1495 69.294 38.1571 68.6851 38.469ZM78.1447 39.4261C77.7202 39.8506 77.5745 40.7239 77.6656 42.2971C77.7289 43.3902 77.7634 43.4938 78.1917 43.8765C78.6364 44.2738 78.6978 44.2861 80.2447 44.2861C82.7599 44.2861 82.9814 44.0623 82.9814 41.5221C82.9814 39.9528 82.9748 39.9213 82.559 39.5055C82.1367 39.0832 82.1358 39.083 80.3121 39.083C78.5847 39.083 78.4696 39.1012 78.1447 39.4261ZM84.7816 39.4378C84.4424 39.7769 84.4268 39.8726 84.4268 41.6168C84.4268 43.4405 84.4269 43.4413 84.8492 43.8637C85.2656 44.2799 85.2951 44.2861 86.8799 44.2861C89.4054 44.2861 89.6299 44.0623 89.6299 41.5444C89.6299 40.0641 89.6081 39.9464 89.2557 39.5277L88.8815 39.083H87.009C85.2134 39.083 85.1217 39.0976 84.7816 39.4378ZM70.0553 39.7275C70.2133 39.9684 70.2571 40.2249 70.1914 40.5237C69.9674 41.5435 68.8174 41.3269 68.8174 40.2648C68.8174 39.9646 68.8954 39.6409 68.9908 39.5455C69.2802 39.2562 69.8054 39.3461 70.0553 39.7275ZM81.8252 41.6123V43.1299H80.3076H78.79V41.7087C78.79 40.9269 78.8334 40.244 78.8864 40.1911C78.9393 40.1381 79.6223 40.0947 80.404 40.0947H81.8252V41.6123ZM88.4736 41.6123V43.1299H86.9561H85.4385V41.7087C85.4385 40.9269 85.4818 40.244 85.5349 40.1911C85.5878 40.1381 86.2707 40.0947 87.0525 40.0947H88.4736V41.6123ZM78.1917 45.4184C77.7634 45.8011 77.7289 45.9047 77.6656 46.9978C77.5745 48.571 77.7202 49.4443 78.1447 49.8688C78.4696 50.1937 78.5847 50.2119 80.3121 50.2119C82.1358 50.2119 82.1367 50.2118 82.559 49.7894C82.9752 49.3731 82.9814 49.3436 82.9814 47.7588C82.9814 45.2315 82.7587 45.0088 80.2309 45.0088C78.6993 45.0088 78.6358 45.0215 78.1917 45.4184ZM84.8492 45.4313C84.4269 45.8536 84.4268 45.8544 84.4268 47.6781C84.4268 49.4223 84.4424 49.518 84.7816 49.8571C85.1217 50.1973 85.2134 50.2119 87.009 50.2119H88.8815L89.2557 49.7672C89.6079 49.3486 89.6299 49.2307 89.6299 47.7531C89.6299 46.89 89.5676 46.0201 89.4916 45.82C89.2528 45.1919 88.6633 45.0088 86.8799 45.0088C85.2951 45.0088 85.2656 45.015 84.8492 45.4313ZM81.7941 47.6465L81.7529 49.1279H80.3076H78.8623L78.8211 47.6465L78.7799 46.165H80.3076H81.8353L81.7941 47.6465ZM88.4736 47.6877V49.2103L86.9922 49.1691L85.5107 49.1279L85.4696 47.6465L85.4284 46.165H86.951H88.4736V47.6877ZM73.8776 50.248C73.8784 50.7449 73.9195 51.3953 73.9688 51.6934L74.0584 52.2354H67.6801H61.3018V50.79V49.3447H67.5889H73.876L73.8776 50.248Z"/>
</mask>
<path fill-rule="evenodd" clip-rule="evenodd" d="M60.3847 16.6559C60.1649 16.8989 60.1455 18.3736 60.1455 34.9167C60.1455 52.1679 60.1565 52.9232 60.4099 53.1524C60.6524 53.3718 61.961 53.3916 76.2743 53.3916C91.107 53.3916 91.8989 53.3786 92.367 53.1275C93.168 52.6979 93.3877 52.1109 93.3877 50.3999C93.3877 49.0279 93.365 48.9091 93.0722 48.7524C92.8035 48.6086 92.7176 48.6318 92.4941 48.908C92.2829 49.1687 92.2314 49.4921 92.2314 50.5604C92.2314 51.4007 92.1677 51.9522 92.058 52.0619C91.9272 52.1927 89.8725 52.2354 83.6976 52.2354C75.9497 52.2354 75.4978 52.2212 75.2714 51.971C75.0535 51.7302 75.0322 50.7691 75.0322 41.1312C75.0322 30.7483 75.0374 30.5505 75.3213 30.2666C75.6034 29.9845 75.803 29.9775 83.6817 29.9775C91.3176 29.9775 91.7659 29.9918 91.9922 30.2419C92.2089 30.4812 92.2314 31.2731 92.2314 38.6247C92.2314 46.5811 92.2372 46.7489 92.5238 47.0356C92.7561 47.2678 92.875 47.2964 93.102 47.175C93.3815 47.0253 93.3877 46.8422 93.3871 38.6805C93.3867 30.6672 93.3756 30.3207 93.105 29.8769C92.5611 28.9849 92.2757 28.8989 89.6725 28.8425L87.3174 28.7915V23.1068C87.3174 17.5213 87.2633 16.7752 86.8386 16.5052C86.7442 16.4451 82.046 16.3951 76.398 16.3938C68.6013 16.3922 66.0873 16.4334 65.9557 16.565C65.6644 16.8563 65.7582 17.2569 66.1529 17.4069C66.3806 17.4935 70.3126 17.5479 76.3424 17.5479H86.1611V23.1765V28.8051L80.7773 28.8493C74.7981 28.8985 74.7296 28.909 74.2036 29.8716C73.9686 30.3016 73.9449 31.0508 73.9069 39.2637L73.8656 48.1885H67.5837H61.3018V32.8682V17.5479H62.4486C63.7637 17.5479 64.3369 17.3822 64.3369 17.0022C64.3369 16.479 64.0461 16.3916 62.307 16.3916C60.8599 16.3916 60.5904 16.4287 60.3847 16.6559ZM64.0117 20.5946C63.7196 20.7647 63.6806 21.1697 63.9322 21.4213C64.1792 21.6683 71.5766 21.6683 71.8236 21.4213C72.0841 21.1608 72.0326 20.7567 71.7175 20.5881C71.3448 20.3886 64.3553 20.3945 64.0117 20.5946ZM63.9322 23.2135C63.6718 23.4739 63.7232 24.878 64.0383 25.0467C64.4249 25.2535 83.327 25.2535 83.7136 25.0467C84.0287 24.878 84.0802 23.4739 83.8197 23.2135C83.569 22.9627 64.183 22.9627 63.9322 23.2135ZM78.4237 31.1269C77.7773 31.3887 77.7085 31.6454 77.6566 33.9891C77.6011 36.5036 77.6719 37.0977 78.0755 37.5013C78.3434 37.7692 78.5997 37.7822 83.6383 37.7822H88.9204L89.2751 37.4274C89.6257 37.0769 89.6299 37.0416 89.6299 34.4551C89.6299 33.0154 89.5661 31.7184 89.4884 31.573C89.4106 31.4276 89.1408 31.2368 88.8887 31.149C88.347 30.9602 78.8843 30.9401 78.4237 31.1269ZM88.4736 34.3857V36.626H83.6318H78.79V34.3857V32.1455H83.6318H88.4736V34.3857ZM64.7795 33.7103C63.0613 34.6319 63.6559 37.4932 65.5654 37.4932C67.475 37.4932 68.0696 34.6319 66.3514 33.7103C65.7316 33.3779 65.3992 33.3779 64.7795 33.7103ZM68.7697 33.9217C68.4864 34.1353 65.6377 40.8816 65.6377 41.3387C65.6377 41.7392 66.1584 41.9496 66.4407 41.6633C66.6855 41.415 69.54 34.6183 69.54 34.2838C69.54 33.9263 69.0618 33.7014 68.7697 33.9217ZM66.1917 35.0831C66.3458 35.406 66.3508 35.5775 66.2157 35.9038C65.922 36.6128 65.2443 36.6406 64.9325 35.9562C64.4573 34.9133 65.6996 34.0517 66.1917 35.0831ZM68.6851 38.469C66.9365 39.3643 67.6019 42.2601 69.5567 42.2621C71.3772 42.264 71.9355 39.2976 70.2763 38.4397C69.7151 38.1495 69.294 38.1571 68.6851 38.469ZM78.1447 39.4261C77.7202 39.8506 77.5745 40.7239 77.6656 42.2971C77.7289 43.3902 77.7634 43.4938 78.1917 43.8765C78.6364 44.2738 78.6978 44.2861 80.2447 44.2861C82.7599 44.2861 82.9814 44.0623 82.9814 41.5221C82.9814 39.9528 82.9748 39.9213 82.559 39.5055C82.1367 39.0832 82.1358 39.083 80.3121 39.083C78.5847 39.083 78.4696 39.1012 78.1447 39.4261ZM84.7816 39.4378C84.4424 39.7769 84.4268 39.8726 84.4268 41.6168C84.4268 43.4405 84.4269 43.4413 84.8492 43.8637C85.2656 44.2799 85.2951 44.2861 86.8799 44.2861C89.4054 44.2861 89.6299 44.0623 89.6299 41.5444C89.6299 40.0641 89.6081 39.9464 89.2557 39.5277L88.8815 39.083H87.009C85.2134 39.083 85.1217 39.0976 84.7816 39.4378ZM70.0553 39.7275C70.2133 39.9684 70.2571 40.2249 70.1914 40.5237C69.9674 41.5435 68.8174 41.3269 68.8174 40.2648C68.8174 39.9646 68.8954 39.6409 68.9908 39.5455C69.2802 39.2562 69.8054 39.3461 70.0553 39.7275ZM81.8252 41.6123V43.1299H80.3076H78.79V41.7087C78.79 40.9269 78.8334 40.244 78.8864 40.1911C78.9393 40.1381 79.6223 40.0947 80.404 40.0947H81.8252V41.6123ZM88.4736 41.6123V43.1299H86.9561H85.4385V41.7087C85.4385 40.9269 85.4818 40.244 85.5349 40.1911C85.5878 40.1381 86.2707 40.0947 87.0525 40.0947H88.4736V41.6123ZM78.1917 45.4184C77.7634 45.8011 77.7289 45.9047 77.6656 46.9978C77.5745 48.571 77.7202 49.4443 78.1447 49.8688C78.4696 50.1937 78.5847 50.2119 80.3121 50.2119C82.1358 50.2119 82.1367 50.2118 82.559 49.7894C82.9752 49.3731 82.9814 49.3436 82.9814 47.7588C82.9814 45.2315 82.7587 45.0088 80.2309 45.0088C78.6993 45.0088 78.6358 45.0215 78.1917 45.4184ZM84.8492 45.4313C84.4269 45.8536 84.4268 45.8544 84.4268 47.6781C84.4268 49.4223 84.4424 49.518 84.7816 49.8571C85.1217 50.1973 85.2134 50.2119 87.009 50.2119H88.8815L89.2557 49.7672C89.6079 49.3486 89.6299 49.2307 89.6299 47.7531C89.6299 46.89 89.5676 46.0201 89.4916 45.82C89.2528 45.1919 88.6633 45.0088 86.8799 45.0088C85.2951 45.0088 85.2656 45.015 84.8492 45.4313ZM81.7941 47.6465L81.7529 49.1279H80.3076H78.8623L78.8211 47.6465L78.7799 46.165H80.3076H81.8353L81.7941 47.6465ZM88.4736 47.6877V49.2103L86.9922 49.1691L85.5107 49.1279L85.4696 47.6465L85.4284 46.165H86.951H88.4736V47.6877ZM73.8776 50.248C73.8784 50.7449 73.9195 51.3953 73.9688 51.6934L74.0584 52.2354H67.6801H61.3018V50.79V49.3447H67.5889H73.876L73.8776 50.248Z" fill="#B2955F"/>
<path fill-rule="evenodd" clip-rule="evenodd" d="M60.3847 16.6559C60.1649 16.8989 60.1455 18.3736 60.1455 34.9167C60.1455 52.1679 60.1565 52.9232 60.4099 53.1524C60.6524 53.3718 61.961 53.3916 76.2743 53.3916C91.107 53.3916 91.8989 53.3786 92.367 53.1275C93.168 52.6979 93.3877 52.1109 93.3877 50.3999C93.3877 49.0279 93.365 48.9091 93.0722 48.7524C92.8035 48.6086 92.7176 48.6318 92.4941 48.908C92.2829 49.1687 92.2314 49.4921 92.2314 50.5604C92.2314 51.4007 92.1677 51.9522 92.058 52.0619C91.9272 52.1927 89.8725 52.2354 83.6976 52.2354C75.9497 52.2354 75.4978 52.2212 75.2714 51.971C75.0535 51.7302 75.0322 50.7691 75.0322 41.1312C75.0322 30.7483 75.0374 30.5505 75.3213 30.2666C75.6034 29.9845 75.803 29.9775 83.6817 29.9775C91.3176 29.9775 91.7659 29.9918 91.9922 30.2419C92.2089 30.4812 92.2314 31.2731 92.2314 38.6247C92.2314 46.5811 92.2372 46.7489 92.5238 47.0356C92.7561 47.2678 92.875 47.2964 93.102 47.175C93.3815 47.0253 93.3877 46.8422 93.3871 38.6805C93.3867 30.6672 93.3756 30.3207 93.105 29.8769C92.5611 28.9849 92.2757 28.8989 89.6725 28.8425L87.3174 28.7915V23.1068C87.3174 17.5213 87.2633 16.7752 86.8386 16.5052C86.7442 16.4451 82.046 16.3951 76.398 16.3938C68.6013 16.3922 66.0873 16.4334 65.9557 16.565C65.6644 16.8563 65.7582 17.2569 66.1529 17.4069C66.3806 17.4935 70.3126 17.5479 76.3424 17.5479H86.1611V23.1765V28.8051L80.7773 28.8493C74.7981 28.8985 74.7296 28.909 74.2036 29.8716C73.9686 30.3016 73.9449 31.0508 73.9069 39.2637L73.8656 48.1885H67.5837H61.3018V32.8682V17.5479H62.4486C63.7637 17.5479 64.3369 17.3822 64.3369 17.0022C64.3369 16.479 64.0461 16.3916 62.307 16.3916C60.8599 16.3916 60.5904 16.4287 60.3847 16.6559ZM64.0117 20.5946C63.7196 20.7647 63.6806 21.1697 63.9322 21.4213C64.1792 21.6683 71.5766 21.6683 71.8236 21.4213C72.0841 21.1608 72.0326 20.7567 71.7175 20.5881C71.3448 20.3886 64.3553 20.3945 64.0117 20.5946ZM63.9322 23.2135C63.6718 23.4739 63.7232 24.878 64.0383 25.0467C64.4249 25.2535 83.327 25.2535 83.7136 25.0467C84.0287 24.878 84.0802 23.4739 83.8197 23.2135C83.569 22.9627 64.183 22.9627 63.9322 23.2135ZM78.4237 31.1269C77.7773 31.3887 77.7085 31.6454 77.6566 33.9891C77.6011 36.5036 77.6719 37.0977 78.0755 37.5013C78.3434 37.7692 78.5997 37.7822 83.6383 37.7822H88.9204L89.2751 37.4274C89.6257 37.0769 89.6299 37.0416 89.6299 34.4551C89.6299 33.0154 89.5661 31.7184 89.4884 31.573C89.4106 31.4276 89.1408 31.2368 88.8887 31.149C88.347 30.9602 78.8843 30.9401 78.4237 31.1269ZM88.4736 34.3857V36.626H83.6318H78.79V34.3857V32.1455H83.6318H88.4736V34.3857ZM64.7795 33.7103C63.0613 34.6319 63.6559 37.4932 65.5654 37.4932C67.475 37.4932 68.0696 34.6319 66.3514 33.7103C65.7316 33.3779 65.3992 33.3779 64.7795 33.7103ZM68.7697 33.9217C68.4864 34.1353 65.6377 40.8816 65.6377 41.3387C65.6377 41.7392 66.1584 41.9496 66.4407 41.6633C66.6855 41.415 69.54 34.6183 69.54 34.2838C69.54 33.9263 69.0618 33.7014 68.7697 33.9217ZM66.1917 35.0831C66.3458 35.406 66.3508 35.5775 66.2157 35.9038C65.922 36.6128 65.2443 36.6406 64.9325 35.9562C64.4573 34.9133 65.6996 34.0517 66.1917 35.0831ZM68.6851 38.469C66.9365 39.3643 67.6019 42.2601 69.5567 42.2621C71.3772 42.264 71.9355 39.2976 70.2763 38.4397C69.7151 38.1495 69.294 38.1571 68.6851 38.469ZM78.1447 39.4261C77.7202 39.8506 77.5745 40.7239 77.6656 42.2971C77.7289 43.3902 77.7634 43.4938 78.1917 43.8765C78.6364 44.2738 78.6978 44.2861 80.2447 44.2861C82.7599 44.2861 82.9814 44.0623 82.9814 41.5221C82.9814 39.9528 82.9748 39.9213 82.559 39.5055C82.1367 39.0832 82.1358 39.083 80.3121 39.083C78.5847 39.083 78.4696 39.1012 78.1447 39.4261ZM84.7816 39.4378C84.4424 39.7769 84.4268 39.8726 84.4268 41.6168C84.4268 43.4405 84.4269 43.4413 84.8492 43.8637C85.2656 44.2799 85.2951 44.2861 86.8799 44.2861C89.4054 44.2861 89.6299 44.0623 89.6299 41.5444C89.6299 40.0641 89.6081 39.9464 89.2557 39.5277L88.8815 39.083H87.009C85.2134 39.083 85.1217 39.0976 84.7816 39.4378ZM70.0553 39.7275C70.2133 39.9684 70.2571 40.2249 70.1914 40.5237C69.9674 41.5435 68.8174 41.3269 68.8174 40.2648C68.8174 39.9646 68.8954 39.6409 68.9908 39.5455C69.2802 39.2562 69.8054 39.3461 70.0553 39.7275ZM81.8252 41.6123V43.1299H80.3076H78.79V41.7087C78.79 40.9269 78.8334 40.244 78.8864 40.1911C78.9393 40.1381 79.6223 40.0947 80.404 40.0947H81.8252V41.6123ZM88.4736 41.6123V43.1299H86.9561H85.4385V41.7087C85.4385 40.9269 85.4818 40.244 85.5349 40.1911C85.5878 40.1381 86.2707 40.0947 87.0525 40.0947H88.4736V41.6123ZM78.1917 45.4184C77.7634 45.8011 77.7289 45.9047 77.6656 46.9978C77.5745 48.571 77.7202 49.4443 78.1447 49.8688C78.4696 50.1937 78.5847 50.2119 80.3121 50.2119C82.1358 50.2119 82.1367 50.2118 82.559 49.7894C82.9752 49.3731 82.9814 49.3436 82.9814 47.7588C82.9814 45.2315 82.7587 45.0088 80.2309 45.0088C78.6993 45.0088 78.6358 45.0215 78.1917 45.4184ZM84.8492 45.4313C84.4269 45.8536 84.4268 45.8544 84.4268 47.6781C84.4268 49.4223 84.4424 49.518 84.7816 49.8571C85.1217 50.1973 85.2134 50.2119 87.009 50.2119H88.8815L89.2557 49.7672C89.6079 49.3486 89.6299 49.2307 89.6299 47.7531C89.6299 46.89 89.5676 46.0201 89.4916 45.82C89.2528 45.1919 88.6633 45.0088 86.8799 45.0088C85.2951 45.0088 85.2656 45.015 84.8492 45.4313ZM81.7941 47.6465L81.7529 49.1279H80.3076H78.8623L78.8211 47.6465L78.7799 46.165H80.3076H81.8353L81.7941 47.6465ZM88.4736 47.6877V49.2103L86.9922 49.1691L85.5107 49.1279L85.4696 47.6465L85.4284 46.165H86.951H88.4736V47.6877ZM73.8776 50.248C73.8784 50.7449 73.9195 51.3953 73.9688 51.6934L74.0584 52.2354H67.6801H61.3018V50.79V49.3447H67.5889H73.876L73.8776 50.248Z" stroke="#B2955F" stroke-width="0.2" mask="url(#path-1-outside-1_245_6950)"/>
</svg>
