<svg width="152" height="69" viewBox="0 0 152 69" fill="none" xmlns="http://www.w3.org/2000/svg">
<mask id="path-1-outside-1_245_6943" maskUnits="userSpaceOnUse" x="56.0371" y="17.8711" width="39" height="39" fill="black">
<rect fill="white" x="56.0371" y="17.8711" width="39" height="39"/>
<path fill-rule="evenodd" clip-rule="evenodd" d="M60.0327 19.1265C59.4809 19.2946 58.9927 19.6179 58.3939 20.2116C57.0551 21.5392 57.0247 21.7271 57.0752 28.3516C57.114 33.4465 57.1411 33.9265 57.3992 34.0879C57.6044 34.2164 57.7572 34.2164 57.9624 34.0881C58.2197 33.9273 58.251 33.4101 58.3245 28.0921L58.405 22.2721L58.8367 21.6256C59.0741 21.27 59.5448 20.8085 59.8827 20.6002L60.497 20.2215L67.7788 20.1753L75.0606 20.1294V28.4343V36.7394H66.242C59.5976 36.7394 57.3757 36.7866 57.2302 36.9309C57.0855 37.0744 57.0371 38.9885 57.0371 44.5623C57.0371 53.2472 57.0299 53.193 58.3781 54.5249C59.8378 55.967 59.0652 55.9 73.6752 55.8523C85.5647 55.8135 86.3819 55.7931 86.5483 55.5315C86.6778 55.3279 86.6778 55.1766 86.5483 54.9729C86.3864 54.7182 85.9297 54.69 81.3593 54.6515L76.348 54.6094V46.3143V38.0195L83.2904 37.978C89.7005 37.9395 90.2465 37.9149 90.4105 37.657C90.54 37.4534 90.54 37.3021 90.4105 37.0985C90.2465 36.8406 89.7005 36.816 83.2904 36.7775L76.348 36.736V28.4327V20.1294L83.6298 20.1753L90.9116 20.2215L91.5258 20.6002C91.8638 20.8085 92.3345 21.2702 92.5718 21.6259L93.0036 22.2729V37.3661V52.4593L92.6301 53.0549C92.1209 53.8673 91.4098 54.3334 90.3641 54.5404C89.3929 54.7327 89.0317 55.0757 89.3194 55.5315C89.564 55.919 90.1935 55.9579 91.2564 55.6514C91.9521 55.4509 92.357 55.196 93.0115 54.5471C94.4527 53.1178 94.3714 54.143 94.3714 37.3778C94.3714 20.6158 94.4522 21.6372 93.014 20.2111C91.5743 18.7832 92.6172 18.8633 75.6348 18.8761C62.9445 18.8855 60.706 18.9214 60.0327 19.1265ZM66.242 24.1634C66.1156 24.2887 66.0488 24.9496 66.0488 26.0733V27.7916L64.2557 27.8368C62.7541 27.8746 62.4335 27.9274 62.2852 28.1612C62.1561 28.3646 62.1561 28.5165 62.2852 28.7198C62.4335 28.9536 62.7539 29.0064 64.2504 29.0441L66.0384 29.0893L66.0839 30.8625C66.1219 32.3466 66.1752 32.6643 66.4109 32.8115C66.6159 32.9395 66.7691 32.9395 66.9742 32.8115C67.2099 32.6643 67.2632 32.3466 67.3012 30.8625L67.3467 29.0893L69.1347 29.0441C70.6312 29.0064 70.9516 28.9536 71.0999 28.7198C71.229 28.5165 71.229 28.3646 71.0999 28.1612C70.9516 27.9274 70.631 27.8746 69.1294 27.8368L67.3362 27.7916V26.0733C67.3362 24.3253 67.2281 23.9719 66.6925 23.9719C66.5509 23.9719 66.3482 24.0581 66.242 24.1634ZM80.4058 27.9911C80.1458 28.249 80.1577 28.6774 80.4311 28.9025C80.5869 29.0307 81.8746 29.0719 84.7989 29.0417C88.5452 29.0033 88.9628 28.9721 89.1232 28.7198C89.2526 28.5162 89.2526 28.3649 89.1231 28.1612C88.9626 27.9088 88.5441 27.8778 84.7736 27.8395C81.6638 27.8077 80.5518 27.8464 80.4058 27.9911ZM75.0606 46.3198V54.6233L67.8592 54.5787C60.9144 54.5356 60.635 54.5222 60.0142 54.2007C59.6602 54.0173 59.1533 53.5623 58.8877 53.1896L58.405 52.512L58.3585 45.2641L58.3121 38.0161H66.6863H75.0606V46.3198ZM63.5062 43.155C63.1411 43.5172 63.3162 43.8373 64.5566 45.0746L65.7999 46.315L64.5566 47.5553C63.3162 48.7927 63.1411 49.1128 63.5062 49.4749C63.8714 49.8371 64.1942 49.6634 65.4418 48.4333L66.6925 47.2002L67.9432 48.4333C69.1909 49.6634 69.5137 49.8371 69.8788 49.4749C70.244 49.1128 70.0689 48.7927 68.8285 47.5553L67.5852 46.315L68.8285 45.0746C70.0689 43.8373 70.244 43.5172 69.8788 43.155C69.5137 42.7929 69.1909 42.9666 67.9432 44.1967L66.6925 45.4297L65.4418 44.1967C64.1942 42.9666 63.8714 42.7929 63.5062 43.155ZM80.4058 43.3121C80.1458 43.57 80.1577 43.9983 80.4311 44.2235C80.5869 44.3517 81.8746 44.3928 84.7989 44.3627C88.5452 44.3242 88.9628 44.2931 89.1232 44.0408C89.2526 43.8371 89.2526 43.6858 89.1231 43.4822C88.9626 43.2297 88.5441 43.1988 84.7736 43.1605C81.6638 43.1287 80.5518 43.1673 80.4058 43.3121ZM80.4058 48.4191C80.1458 48.677 80.1577 49.1053 80.4311 49.3305C80.5869 49.4587 81.8746 49.4998 84.7989 49.4697C88.5452 49.4312 88.9628 49.4001 89.1232 49.1478C89.2526 48.9441 89.2526 48.7928 89.1231 48.5892C88.9626 48.3367 88.5441 48.3058 84.7736 48.2675C81.6638 48.2357 80.5518 48.2743 80.4058 48.4191Z"/>
</mask>
<path fill-rule="evenodd" clip-rule="evenodd" d="M60.0327 19.1265C59.4809 19.2946 58.9927 19.6179 58.3939 20.2116C57.0551 21.5392 57.0247 21.7271 57.0752 28.3516C57.114 33.4465 57.1411 33.9265 57.3992 34.0879C57.6044 34.2164 57.7572 34.2164 57.9624 34.0881C58.2197 33.9273 58.251 33.4101 58.3245 28.0921L58.405 22.2721L58.8367 21.6256C59.0741 21.27 59.5448 20.8085 59.8827 20.6002L60.497 20.2215L67.7788 20.1753L75.0606 20.1294V28.4343V36.7394H66.242C59.5976 36.7394 57.3757 36.7866 57.2302 36.9309C57.0855 37.0744 57.0371 38.9885 57.0371 44.5623C57.0371 53.2472 57.0299 53.193 58.3781 54.5249C59.8378 55.967 59.0652 55.9 73.6752 55.8523C85.5647 55.8135 86.3819 55.7931 86.5483 55.5315C86.6778 55.3279 86.6778 55.1766 86.5483 54.9729C86.3864 54.7182 85.9297 54.69 81.3593 54.6515L76.348 54.6094V46.3143V38.0195L83.2904 37.978C89.7005 37.9395 90.2465 37.9149 90.4105 37.657C90.54 37.4534 90.54 37.3021 90.4105 37.0985C90.2465 36.8406 89.7005 36.816 83.2904 36.7775L76.348 36.736V28.4327V20.1294L83.6298 20.1753L90.9116 20.2215L91.5258 20.6002C91.8638 20.8085 92.3345 21.2702 92.5718 21.6259L93.0036 22.2729V37.3661V52.4593L92.6301 53.0549C92.1209 53.8673 91.4098 54.3334 90.3641 54.5404C89.3929 54.7327 89.0317 55.0757 89.3194 55.5315C89.564 55.919 90.1935 55.9579 91.2564 55.6514C91.9521 55.4509 92.357 55.196 93.0115 54.5471C94.4527 53.1178 94.3714 54.143 94.3714 37.3778C94.3714 20.6158 94.4522 21.6372 93.014 20.2111C91.5743 18.7832 92.6172 18.8633 75.6348 18.8761C62.9445 18.8855 60.706 18.9214 60.0327 19.1265ZM66.242 24.1634C66.1156 24.2887 66.0488 24.9496 66.0488 26.0733V27.7916L64.2557 27.8368C62.7541 27.8746 62.4335 27.9274 62.2852 28.1612C62.1561 28.3646 62.1561 28.5165 62.2852 28.7198C62.4335 28.9536 62.7539 29.0064 64.2504 29.0441L66.0384 29.0893L66.0839 30.8625C66.1219 32.3466 66.1752 32.6643 66.4109 32.8115C66.6159 32.9395 66.7691 32.9395 66.9742 32.8115C67.2099 32.6643 67.2632 32.3466 67.3012 30.8625L67.3467 29.0893L69.1347 29.0441C70.6312 29.0064 70.9516 28.9536 71.0999 28.7198C71.229 28.5165 71.229 28.3646 71.0999 28.1612C70.9516 27.9274 70.631 27.8746 69.1294 27.8368L67.3362 27.7916V26.0733C67.3362 24.3253 67.2281 23.9719 66.6925 23.9719C66.5509 23.9719 66.3482 24.0581 66.242 24.1634ZM80.4058 27.9911C80.1458 28.249 80.1577 28.6774 80.4311 28.9025C80.5869 29.0307 81.8746 29.0719 84.7989 29.0417C88.5452 29.0033 88.9628 28.9721 89.1232 28.7198C89.2526 28.5162 89.2526 28.3649 89.1231 28.1612C88.9626 27.9088 88.5441 27.8778 84.7736 27.8395C81.6638 27.8077 80.5518 27.8464 80.4058 27.9911ZM75.0606 46.3198V54.6233L67.8592 54.5787C60.9144 54.5356 60.635 54.5222 60.0142 54.2007C59.6602 54.0173 59.1533 53.5623 58.8877 53.1896L58.405 52.512L58.3585 45.2641L58.3121 38.0161H66.6863H75.0606V46.3198ZM63.5062 43.155C63.1411 43.5172 63.3162 43.8373 64.5566 45.0746L65.7999 46.315L64.5566 47.5553C63.3162 48.7927 63.1411 49.1128 63.5062 49.4749C63.8714 49.8371 64.1942 49.6634 65.4418 48.4333L66.6925 47.2002L67.9432 48.4333C69.1909 49.6634 69.5137 49.8371 69.8788 49.4749C70.244 49.1128 70.0689 48.7927 68.8285 47.5553L67.5852 46.315L68.8285 45.0746C70.0689 43.8373 70.244 43.5172 69.8788 43.155C69.5137 42.7929 69.1909 42.9666 67.9432 44.1967L66.6925 45.4297L65.4418 44.1967C64.1942 42.9666 63.8714 42.7929 63.5062 43.155ZM80.4058 43.3121C80.1458 43.57 80.1577 43.9983 80.4311 44.2235C80.5869 44.3517 81.8746 44.3928 84.7989 44.3627C88.5452 44.3242 88.9628 44.2931 89.1232 44.0408C89.2526 43.8371 89.2526 43.6858 89.1231 43.4822C88.9626 43.2297 88.5441 43.1988 84.7736 43.1605C81.6638 43.1287 80.5518 43.1673 80.4058 43.3121ZM80.4058 48.4191C80.1458 48.677 80.1577 49.1053 80.4311 49.3305C80.5869 49.4587 81.8746 49.4998 84.7989 49.4697C88.5452 49.4312 88.9628 49.4001 89.1232 49.1478C89.2526 48.9441 89.2526 48.7928 89.1231 48.5892C88.9626 48.3367 88.5441 48.3058 84.7736 48.2675C81.6638 48.2357 80.5518 48.2743 80.4058 48.4191Z" fill="#B2955F"/>
<path fill-rule="evenodd" clip-rule="evenodd" d="M60.0327 19.1265C59.4809 19.2946 58.9927 19.6179 58.3939 20.2116C57.0551 21.5392 57.0247 21.7271 57.0752 28.3516C57.114 33.4465 57.1411 33.9265 57.3992 34.0879C57.6044 34.2164 57.7572 34.2164 57.9624 34.0881C58.2197 33.9273 58.251 33.4101 58.3245 28.0921L58.405 22.2721L58.8367 21.6256C59.0741 21.27 59.5448 20.8085 59.8827 20.6002L60.497 20.2215L67.7788 20.1753L75.0606 20.1294V28.4343V36.7394H66.242C59.5976 36.7394 57.3757 36.7866 57.2302 36.9309C57.0855 37.0744 57.0371 38.9885 57.0371 44.5623C57.0371 53.2472 57.0299 53.193 58.3781 54.5249C59.8378 55.967 59.0652 55.9 73.6752 55.8523C85.5647 55.8135 86.3819 55.7931 86.5483 55.5315C86.6778 55.3279 86.6778 55.1766 86.5483 54.9729C86.3864 54.7182 85.9297 54.69 81.3593 54.6515L76.348 54.6094V46.3143V38.0195L83.2904 37.978C89.7005 37.9395 90.2465 37.9149 90.4105 37.657C90.54 37.4534 90.54 37.3021 90.4105 37.0985C90.2465 36.8406 89.7005 36.816 83.2904 36.7775L76.348 36.736V28.4327V20.1294L83.6298 20.1753L90.9116 20.2215L91.5258 20.6002C91.8638 20.8085 92.3345 21.2702 92.5718 21.6259L93.0036 22.2729V37.3661V52.4593L92.6301 53.0549C92.1209 53.8673 91.4098 54.3334 90.3641 54.5404C89.3929 54.7327 89.0317 55.0757 89.3194 55.5315C89.564 55.919 90.1935 55.9579 91.2564 55.6514C91.9521 55.4509 92.357 55.196 93.0115 54.5471C94.4527 53.1178 94.3714 54.143 94.3714 37.3778C94.3714 20.6158 94.4522 21.6372 93.014 20.2111C91.5743 18.7832 92.6172 18.8633 75.6348 18.8761C62.9445 18.8855 60.706 18.9214 60.0327 19.1265ZM66.242 24.1634C66.1156 24.2887 66.0488 24.9496 66.0488 26.0733V27.7916L64.2557 27.8368C62.7541 27.8746 62.4335 27.9274 62.2852 28.1612C62.1561 28.3646 62.1561 28.5165 62.2852 28.7198C62.4335 28.9536 62.7539 29.0064 64.2504 29.0441L66.0384 29.0893L66.0839 30.8625C66.1219 32.3466 66.1752 32.6643 66.4109 32.8115C66.6159 32.9395 66.7691 32.9395 66.9742 32.8115C67.2099 32.6643 67.2632 32.3466 67.3012 30.8625L67.3467 29.0893L69.1347 29.0441C70.6312 29.0064 70.9516 28.9536 71.0999 28.7198C71.229 28.5165 71.229 28.3646 71.0999 28.1612C70.9516 27.9274 70.631 27.8746 69.1294 27.8368L67.3362 27.7916V26.0733C67.3362 24.3253 67.2281 23.9719 66.6925 23.9719C66.5509 23.9719 66.3482 24.0581 66.242 24.1634ZM80.4058 27.9911C80.1458 28.249 80.1577 28.6774 80.4311 28.9025C80.5869 29.0307 81.8746 29.0719 84.7989 29.0417C88.5452 29.0033 88.9628 28.9721 89.1232 28.7198C89.2526 28.5162 89.2526 28.3649 89.1231 28.1612C88.9626 27.9088 88.5441 27.8778 84.7736 27.8395C81.6638 27.8077 80.5518 27.8464 80.4058 27.9911ZM75.0606 46.3198V54.6233L67.8592 54.5787C60.9144 54.5356 60.635 54.5222 60.0142 54.2007C59.6602 54.0173 59.1533 53.5623 58.8877 53.1896L58.405 52.512L58.3585 45.2641L58.3121 38.0161H66.6863H75.0606V46.3198ZM63.5062 43.155C63.1411 43.5172 63.3162 43.8373 64.5566 45.0746L65.7999 46.315L64.5566 47.5553C63.3162 48.7927 63.1411 49.1128 63.5062 49.4749C63.8714 49.8371 64.1942 49.6634 65.4418 48.4333L66.6925 47.2002L67.9432 48.4333C69.1909 49.6634 69.5137 49.8371 69.8788 49.4749C70.244 49.1128 70.0689 48.7927 68.8285 47.5553L67.5852 46.315L68.8285 45.0746C70.0689 43.8373 70.244 43.5172 69.8788 43.155C69.5137 42.7929 69.1909 42.9666 67.9432 44.1967L66.6925 45.4297L65.4418 44.1967C64.1942 42.9666 63.8714 42.7929 63.5062 43.155ZM80.4058 43.3121C80.1458 43.57 80.1577 43.9983 80.4311 44.2235C80.5869 44.3517 81.8746 44.3928 84.7989 44.3627C88.5452 44.3242 88.9628 44.2931 89.1232 44.0408C89.2526 43.8371 89.2526 43.6858 89.1231 43.4822C88.9626 43.2297 88.5441 43.1988 84.7736 43.1605C81.6638 43.1287 80.5518 43.1673 80.4058 43.3121ZM80.4058 48.4191C80.1458 48.677 80.1577 49.1053 80.4311 49.3305C80.5869 49.4587 81.8746 49.4998 84.7989 49.4697C88.5452 49.4312 88.9628 49.4001 89.1232 49.1478C89.2526 48.9441 89.2526 48.7928 89.1231 48.5892C88.9626 48.3367 88.5441 48.3058 84.7736 48.2675C81.6638 48.2357 80.5518 48.2743 80.4058 48.4191Z" stroke="#B2955F" stroke-width="0.4" mask="url(#path-1-outside-1_245_6943)"/>
</svg>
