<svg width="152" height="69" viewBox="0 0 152 69" fill="none" xmlns="http://www.w3.org/2000/svg">
<path fill-rule="evenodd" clip-rule="evenodd" d="M68.0704 16.5708C67.865 16.6904 67.6972 17.0233 67.6972 17.3107C67.6972 17.7918 67.6168 17.8332 66.6843 17.834C65.4085 17.8349 64.3642 18.4452 63.9527 19.4304C63.7838 19.8345 63.6456 20.8399 63.6456 21.6647V23.1642H57.4691C51.5397 23.1642 51.2836 23.1811 51.0676 23.5847C50.9143 23.8713 50.8607 28.6349 50.9002 38.5195C50.9503 51.1464 50.9993 53.06 51.2776 53.2357C51.7103 53.5093 100.317 53.5093 100.75 53.2357C101.028 53.06 101.077 51.1464 101.127 38.5195C101.166 28.6349 101.113 23.8713 100.96 23.5847C100.744 23.1811 100.488 23.1642 94.5581 23.1642H88.3816V21.6647C88.3816 20.8399 88.2434 19.8345 88.0745 19.4304C87.663 18.4452 86.6187 17.8349 85.3429 17.834C84.4087 17.8332 84.33 17.7922 84.33 17.3075C84.33 17.0062 84.1541 16.6879 83.9176 16.5612C83.3608 16.2633 68.583 16.2723 68.0704 16.5708ZM82.8373 18.4729V19.1126H76.0136H69.1899V18.4729V17.8332H76.0136H82.8373V18.4729ZM67.6972 19.7097C67.6972 20.5838 67.8979 20.6053 76.0136 20.6053C84.1294 20.6053 84.33 20.5838 84.33 19.7097C84.33 19.3977 84.5072 19.3259 85.2775 19.3259C86.5631 19.3259 86.8889 19.8097 86.8889 21.7191V23.1642H76.0136H65.1383V21.7191C65.1383 19.8097 65.4641 19.3259 66.7498 19.3259C67.52 19.3259 67.6972 19.3977 67.6972 19.7097ZM99.4702 38.3044V51.9518H76.0136H52.5571V38.3044V24.6569H76.0136H99.4702V38.3044ZM57.2993 29.3122C57.0884 29.4461 57.0424 31.3915 57.0861 38.3184L57.1418 47.1539H64.392H71.6422L71.6978 38.3184C71.7415 31.3915 71.6955 29.4461 71.4846 29.3122C71.1334 29.0893 57.6506 29.0893 57.2993 29.3122ZM80.5426 29.3122C80.3318 29.4461 80.2857 31.3915 80.3294 38.3184L80.3851 47.1539H87.6353H94.8855L94.9411 38.4357C94.9812 32.1773 94.9288 29.6355 94.7552 29.4263C94.5599 29.1911 93.1966 29.1356 87.6626 29.1382C83.8944 29.1401 80.6904 29.2184 80.5426 29.3122ZM70.2561 38.1977V45.7678H64.392H58.5278V38.1977V30.6277H64.392H70.2561V38.1977ZM93.4994 38.1977V45.7678H87.6353H81.7711V38.1977V30.6277H87.6353H93.4994V38.1977ZM63.1456 33.7109C61.346 34.3526 60.4589 35.8395 60.4517 38.2267C60.4429 41.0682 62.0525 42.9957 64.434 42.9957C66.4235 42.9957 67.9254 41.5878 68.3423 39.3324C68.8327 36.6799 67.5667 34.2246 65.3982 33.6224C64.3928 33.3433 64.1499 33.3527 63.1456 33.7109ZM86.3889 33.7109C84.3281 34.4455 83.2109 36.7682 83.685 39.3324C84.108 41.6218 85.5994 42.9957 87.6613 42.9957C90.0086 42.9957 91.5845 41.0686 91.5755 38.2093C91.5681 35.7768 90.5245 34.1453 88.6416 33.6224C87.6361 33.3433 87.3932 33.3527 86.3889 33.7109ZM75.2824 35.0143C75.0982 35.1987 74.9474 35.5196 74.9474 35.7275C74.9474 36.1766 75.5937 36.8117 76.0507 36.8117C76.461 36.8117 77.0798 36.1376 77.0798 35.6907C77.0798 35.2294 76.4998 34.6793 76.0136 34.6793C75.7959 34.6793 75.4669 34.83 75.2824 35.0143ZM65.8324 35.6922C67.1338 37.0531 66.9541 40.1647 65.5157 41.1722C64.5357 41.8587 63.0784 41.3631 62.5016 40.1474C62.0747 39.2477 62.0495 37.4719 62.4502 36.5129C63.0699 35.0298 64.7982 34.6106 65.8324 35.6922ZM88.9576 35.5855C89.6788 36.3775 89.8743 36.936 89.8743 38.2048C89.8743 40.3728 88.7695 41.7032 87.2122 41.4111C86.0035 41.1844 85.3766 40.132 85.3679 38.3157C85.3583 36.2916 86.1959 35.1057 87.6353 35.1057C88.2816 35.1057 88.6384 35.2352 88.9576 35.5855ZM75.1681 40.2095C74.8197 40.8607 74.906 41.2526 75.4805 41.6292C75.9744 41.9527 76.0529 41.9527 76.5467 41.6292C77.4536 41.0351 77.0933 39.797 76.0136 39.797C75.6142 39.797 75.3093 39.9459 75.1681 40.2095Z" fill="#B2955F"/>
</svg>
