<svg width="25" height="25" viewBox="0 0 25 25" fill="none" xmlns="http://www.w3.org/2000/svg">
<circle r="3.40426" transform="matrix(-1 0 0 1 12.9737 8.46285)" stroke="#B2955F" stroke-width="1.5"/>
<path d="M7.0166 16.918C7.0166 16.1858 7.4769 15.5326 8.16647 15.2863V15.2863C11.2754 14.176 14.6727 14.176 17.7816 15.2863V15.2863C18.4712 15.5326 18.9315 16.1858 18.9315 16.918V18.0376C18.9315 19.0482 18.0364 19.8244 17.036 19.6815L16.7024 19.6339C14.2294 19.2806 11.7187 19.2806 9.24565 19.6339L8.9121 19.6815C7.91167 19.8244 7.0166 19.0482 7.0166 18.0376V16.918Z" stroke="#B2955F" stroke-width="1.5"/>
<path d="M18.0811 11.9609C19.5583 11.9609 20.7559 10.7633 20.7559 9.2861C20.7559 7.80886 19.5583 6.61133 18.0811 6.61133" stroke="#B2955F" stroke-width="1.5" stroke-linecap="round"/>
<path d="M21.0108 18.0632L21.2729 18.1006C22.0589 18.2129 22.7622 17.6029 22.7622 16.8089V15.9292C22.7622 15.3539 22.4005 14.8407 21.8587 14.6472C21.3183 14.4542 20.7667 14.3039 20.209 14.1963" stroke="#B2955F" stroke-width="1.5" stroke-linecap="round"/>
<path d="M7.44235 11.9609C5.96511 11.9609 4.76758 10.7633 4.76758 9.2861C4.76758 7.80886 5.96511 6.61133 7.44235 6.61133" stroke="#B2955F" stroke-width="1.5" stroke-linecap="round"/>
<path d="M4.51266 18.0632L4.25058 18.1006C3.46453 18.2129 2.76126 17.6029 2.76126 16.8089V15.9292C2.76126 15.3539 3.12293 14.8407 3.66473 14.6472C4.20518 14.4542 4.75672 14.3039 5.31445 14.1963" stroke="#B2955F" stroke-width="1.5" stroke-linecap="round"/>
</svg>
