<svg width="25" height="25" viewBox="0 0 25 25" fill="none" xmlns="http://www.w3.org/2000/svg">
<path d="M19.7617 6.55859C19.7617 7.93931 16.6277 9.05859 12.7617 9.05859C8.89573 9.05859 5.76172 7.93931 5.76172 6.55859M19.7617 6.55859C19.7617 5.17788 16.6277 4.05859 12.7617 4.05859C8.89573 4.05859 5.76172 5.17788 5.76172 6.55859M19.7617 6.55859V18.5586C19.7617 19.9393 16.6277 21.0586 12.7617 21.0586C8.89573 21.0586 5.76172 19.9393 5.76172 18.5586V6.55859M19.7617 10.5586C19.7617 11.9393 16.6277 13.0586 12.7617 13.0586C8.89573 13.0586 5.76172 11.9393 5.76172 10.5586M19.7617 14.5586C19.7617 15.9393 16.6277 17.0586 12.7617 17.0586C8.89573 17.0586 5.76172 15.9393 5.76172 14.5586" stroke="#B2955F" stroke-width="1.5"/>
</svg>
