<svg width="47" height="63" viewBox="0 0 47 63" fill="none" xmlns="http://www.w3.org/2000/svg">
<path fill-rule="evenodd" clip-rule="evenodd" d="M20.4706 2.99332C18.9489 1.58459 18.4786 1.06853 18.5605 0.897395C18.8034 0.390097 23.5405 1.47254 27.4326 2.92482C36.5006 6.30841 43.8754 11.7968 45.7158 16.5314C46.5009 18.5509 46.591 21.8281 46.0568 28.9291C45.2465 39.6995 44.3934 43.213 41.9669 45.7711C41.0926 46.6928 39.9768 47.4611 38.9414 47.8544C35.5464 49.1437 28.4354 49.2406 16.9921 48.1535C11.9648 47.6759 9.3761 47.2243 7.15199 46.4368C4.00573 45.3228 1.97686 43.4295 0.966948 40.665C0.579998 39.6061 0.178537 36.5295 0.19378 34.7416C0.225419 31.0659 0.910784 22.2184 1.42654 18.8293C1.96243 15.3078 2.81627 13.083 4.37168 11.1551C5.06586 10.2946 5.35382 10.0332 6.232 9.46593C7.79745 8.45494 8.72437 8.17859 11.6224 7.85917C14.653 7.52508 17.1265 7.5108 21.7686 7.8006C22.9389 7.87371 24.1702 7.93612 24.505 7.93929C25.0722 7.94481 25.1122 7.93019 25.0925 7.72543C25.0567 7.35425 23.8843 6.15382 20.4706 2.99332ZM25.8904 28.6427C24.3889 28.0719 23.0027 27.6893 21.9219 27.5476C20.9763 27.4237 20.1223 27.4728 19.7539 27.6726C19.1173 28.0177 18.475 29.3182 18.2659 30.6856C17.9011 33.0694 18.9436 34.2391 22.7185 35.6817C27.5168 37.5154 30.0212 37.2515 32.1886 34.6836C32.8509 33.899 33.4212 32.8133 33.2222 32.7159C33.166 32.6883 32.7383 32.8298 32.2719 33.0301C29.581 34.1863 28.4675 34.4541 27.7629 34.1144C27.0122 33.7525 26.9987 33.0611 27.7142 31.6439C28.221 30.6401 28.2899 30.2959 28.0681 29.8749C27.8689 29.4967 27.3202 29.1862 25.8904 28.6427ZM40.9974 32.339C41.5922 31.472 41.6422 31.3579 41.4845 31.2275C41.2714 31.0512 39.4176 31.1808 38.3742 31.4449C35.6439 32.1358 34.8931 32.9935 35.4185 34.8211C35.837 36.277 36.7029 36.9708 38.2213 37.067C39.9205 37.1746 41.4756 36.4437 42.7748 34.9269C43.9648 33.5374 43.953 33.2803 42.7337 34.0313C41.7663 34.6272 41.1271 34.787 40.5785 34.5702C40.2992 34.4598 40.1767 34.337 40.1311 34.1219C40.0556 33.7648 40.1436 33.5837 40.9974 32.339ZM8.91962 57.8648C9.99016 54.7373 12.227 53.1462 16.0468 52.7953C17.3698 52.6737 29.346 52.7606 30.6441 52.9012C31.9063 53.0378 32.7972 53.3047 33.8464 53.8605C34.736 54.3315 35.8192 55.3521 36.3062 56.1779C37.0422 57.4259 37.7015 59.7462 37.8095 61.4686C37.832 61.8279 37.5361 62.1265 37.1765 62.1072L36.2695 62.0586C33.9779 61.9355 9.94899 61.9798 9.11569 62.1086C8.74025 62.1666 8.37406 62.191 8.30181 62.1629C7.98235 62.0381 8.33793 59.5645 8.91962 57.8648Z" fill="url(#paint0_linear_139_5230)"/>
<defs>
<linearGradient id="paint0_linear_139_5230" x1="21.45" y1="7.17687" x2="52.1989" y2="44.3991" gradientUnits="userSpaceOnUse">
<stop stop-color="#926D2A"/>
<stop offset="1" stop-color="#DCB773"/>
</linearGradient>
</defs>
</svg>
