<svg width="46" height="62" viewBox="0 0 46 62" fill="none" xmlns="http://www.w3.org/2000/svg">
<path opacity="0.6" fill-rule="evenodd" clip-rule="evenodd" d="M19.1452 2.9402C17.5677 1.59425 17.077 1.09766 17.1518 0.923347C17.374 0.406629 22.151 1.29636 26.0987 2.58984C35.2963 5.60345 42.8873 10.7887 44.918 15.4448C45.7842 17.431 46.0069 20.7018 45.7607 27.8186C45.3872 38.613 44.677 42.1581 42.3561 44.8124C41.5199 45.7687 40.4361 46.5816 39.4175 47.0165C36.0774 48.4422 28.9763 48.8269 17.4983 48.2042C12.4559 47.9306 9.85096 47.5841 7.59678 46.8873C4.408 45.9016 2.30412 44.0921 1.1831 41.3708C0.753589 40.3284 0.227871 37.2705 0.170705 35.4835C0.0534748 31.8096 0.380002 22.9415 0.758093 19.5343C1.15095 15.9941 1.914 13.7365 3.39006 11.7472C4.04883 10.8593 4.32596 10.5865 5.18045 9.98407C6.70367 8.91052 7.61864 8.59687 10.5014 8.16036C13.516 7.70382 15.9868 7.58939 20.6369 7.69098C21.8092 7.71663 23.042 7.72913 23.3766 7.71874C23.9436 7.70129 23.9829 7.68506 23.9549 7.48127C23.9042 7.11184 22.6841 5.95987 19.1452 2.9402ZM25.5993 28.349C24.0759 27.8395 22.6753 27.5134 21.5896 27.4156C20.6398 27.33 19.7885 27.4137 19.4285 27.6283C18.8064 27.9989 18.2173 29.3242 18.0637 30.6991C17.7957 33.0956 18.8848 34.2221 22.715 35.5107C27.5836 37.1486 30.0753 36.7835 32.1369 34.13C32.7669 33.3192 33.2928 32.2113 33.09 32.122C33.0327 32.0967 32.6111 32.2554 32.1532 32.4745C29.5113 33.7386 28.4096 34.0513 27.6918 33.7404C26.9271 33.4092 26.8855 32.7189 27.5431 31.2739C28.0088 30.2504 28.0637 29.9037 27.825 29.4921C27.6107 29.1223 27.0499 28.8342 25.5993 28.349ZM40.8435 31.4306C41.4027 30.5402 41.448 30.4241 41.2852 30.3002C41.0651 30.1327 39.2182 30.3373 38.1862 30.6434C35.4861 31.4444 34.7708 32.3317 35.3697 34.1365C35.8468 35.5743 36.7401 36.2325 38.2611 36.2671C39.9633 36.3058 41.4875 35.5125 42.7243 33.9443C43.857 32.5079 43.8349 32.2515 42.647 33.0512C41.7045 33.6858 41.0723 33.8713 40.5154 33.6769C40.2318 33.5779 40.1044 33.4601 40.0501 33.2471C39.9602 32.8933 40.0408 32.7088 40.8435 31.4306ZM8.49122 57.6902C9.56176 54.5626 11.7986 52.9716 15.6184 52.6206C16.9414 52.4991 28.9175 52.586 30.2156 52.7265C31.4778 52.8632 32.3688 53.1301 33.418 53.6858C34.3076 54.1569 35.3907 55.1775 35.8778 56.0033C36.6138 57.2513 37.2731 59.5715 37.381 61.2939C37.4036 61.6533 37.1076 61.9519 36.7481 61.9326L35.8411 61.884C33.5495 61.7609 9.52059 61.8052 8.68729 61.9339C8.31185 61.992 7.94566 62.0163 7.87341 61.9882C7.55395 61.8635 7.90954 59.3899 8.49122 57.6902Z" fill="url(#paint0_linear_139_5233)"/>
<defs>
<linearGradient id="paint0_linear_139_5233" x1="21.0223" y1="7.00243" x2="51.7711" y2="44.2247" gradientUnits="userSpaceOnUse">
<stop stop-color="#086572"/>
<stop offset="1" stop-color="#5DE0D8"/>
</linearGradient>
</defs>
</svg>
