<svg width="46" height="62" viewBox="0 0 46 62" fill="none" xmlns="http://www.w3.org/2000/svg">
<path opacity="0.6" fill-rule="evenodd" clip-rule="evenodd" d="M19.0283 2.95913C17.4437 1.62166 16.9502 1.12771 17.0242 0.952999C17.2436 0.435095 22.0253 1.29917 25.9799 2.57143C35.1935 5.53561 42.8122 10.68 44.8679 15.3252C45.7447 17.3066 45.985 20.5763 45.777 27.6943C45.4615 38.4905 44.7704 42.0394 42.4638 44.7061C41.6326 45.6669 40.5533 46.4856 39.537 46.9259C36.2046 48.3695 29.1057 48.7924 17.6245 48.2313C12.5807 47.9848 9.97394 47.6523 7.71606 46.9676C4.52203 45.9991 2.40846 44.2008 1.27285 41.4856C0.837744 40.4455 0.295615 37.3905 0.228855 35.6039C0.0918992 31.9306 0.370806 23.0609 0.730597 19.6517C1.10444 16.1094 1.85535 13.8478 3.32071 11.8506C3.9747 10.9591 4.25037 10.6848 5.10161 10.0779C6.61904 8.99616 7.53232 8.6776 10.4127 8.22561C13.4248 7.75289 15.895 7.6252 20.5455 7.70182C21.7179 7.72118 22.9508 7.72706 23.2854 7.71487C23.8523 7.69437 23.8915 7.67794 23.8624 7.4743C23.8097 7.10515 22.5834 5.95974 19.0283 2.95913ZM25.6187 28.3329C24.0926 27.8316 22.6904 27.513 21.6042 27.421C20.6539 27.3406 19.8031 27.4288 19.4442 27.6453C18.8241 28.0193 18.2421 29.3477 18.0959 30.7234C17.8408 33.1213 18.9359 34.242 22.773 35.51C27.6503 37.1217 30.14 36.7432 32.1873 34.0787C32.8129 33.2645 33.3329 32.1538 33.1296 32.0656C33.0721 32.0406 32.6514 32.2016 32.1947 32.4231C29.5596 33.7015 28.4596 34.02 27.7402 33.713C26.9737 33.3859 26.9284 32.6958 27.5782 31.2473C28.0384 30.2214 28.0915 29.8743 27.8506 29.464C27.6343 29.0953 27.072 28.8103 25.6187 28.3329ZM40.8793 31.3326C41.4337 30.4392 41.4784 30.3229 41.315 30.1999C41.094 30.0335 39.2481 30.2481 38.2178 30.5597C35.5221 31.3751 34.8115 32.2663 35.4201 34.0679C35.905 35.5031 36.8017 36.1564 38.3229 36.1829C40.0253 36.2125 41.5452 35.411 42.7735 33.8362C43.8985 32.3937 43.875 32.1374 42.6914 32.9435C41.7524 33.5831 41.1212 33.7721 40.5632 33.5806C40.2791 33.4832 40.1511 33.3661 40.0957 33.1533C40.0039 32.8 40.0835 32.6151 40.8793 31.3326ZM8.49152 57.6902C9.56206 54.5627 11.7989 52.9716 15.6187 52.6207C16.9417 52.4992 28.9178 52.5861 30.2159 52.7266C31.4781 52.8633 32.3691 53.1302 33.4183 53.6859C34.3079 54.157 35.391 55.1775 35.8781 56.0034C36.6141 57.2514 37.2734 59.5716 37.3813 61.294C37.4038 61.6534 37.1079 61.952 36.7484 61.9327L35.8414 61.884C33.5498 61.761 9.52089 61.8053 8.68758 61.934C8.31215 61.9921 7.94596 62.0164 7.87371 61.9883C7.55425 61.8635 7.90983 59.39 8.49152 57.6902Z" fill="url(#paint0_linear_139_5236)"/>
<defs>
<linearGradient id="paint0_linear_139_5236" x1="21.0223" y1="7.00244" x2="51.7711" y2="44.2247" gradientUnits="userSpaceOnUse">
<stop stop-color="#3C3D3C"/>
<stop offset="1" stop-color="#D2D2D2"/>
</linearGradient>
</defs>
</svg>
