<svg width="40" height="40" viewBox="0 0 40 40" fill="none" xmlns="http://www.w3.org/2000/svg">
<g clip-path="url(#clip0_245_7725)">
<circle opacity="0.7" cx="20.0094" cy="20.1696" r="19.8414" fill="#07C3EC"/>
<path d="M27.3574 12.0589C27.1227 12.0697 26.9016 12.1376 26.7051 12.2136H26.7024C26.5032 12.2924 25.5563 12.6887 24.1181 13.2887C22.68 13.8915 20.8134 14.6734 18.9605 15.4498C15.2601 17.0001 11.6225 18.5259 11.6225 18.5259L11.6661 18.5096C11.6661 18.5096 11.4151 18.591 11.1531 18.7702C11.0194 18.8571 10.872 18.9765 10.7438 19.1639C10.6155 19.3512 10.5118 19.639 10.55 19.9349C10.6128 20.4372 10.9403 20.7385 11.1749 20.9041C11.4124 21.0725 11.6389 21.1512 11.6389 21.1512H11.6443L15.0554 22.2942C15.2083 22.7829 16.0952 25.6824 16.308 26.3503C16.4335 26.7494 16.5563 26.9992 16.7092 27.1892C16.7828 27.287 16.8702 27.3684 16.9739 27.4336C17.0148 27.458 17.0585 27.477 17.1021 27.4933C17.1158 27.5014 17.1294 27.5041 17.1458 27.5069L17.1103 27.4987C17.1212 27.5014 17.1294 27.5096 17.1376 27.5123C17.1649 27.5204 17.184 27.5232 17.2195 27.5286C17.7598 27.6915 18.1937 27.3575 18.1937 27.3575L18.2182 27.3385L20.2322 25.5141L23.6078 28.0906L23.6842 28.1232C24.3883 28.4299 25.1005 28.2589 25.4771 27.9575C25.8565 27.6535 26.0038 27.2652 26.0038 27.2652L26.0284 27.2028L28.6372 13.9078C28.7109 13.5792 28.73 13.2725 28.6481 12.9738C28.5663 12.6752 28.3561 12.3955 28.1023 12.2462C27.8458 12.0942 27.592 12.048 27.3574 12.0589ZM27.2864 13.4842C27.2837 13.5277 27.2919 13.5222 27.2728 13.6064V13.6145L24.6885 26.7711C24.6776 26.7901 24.6585 26.8308 24.6066 26.8716C24.552 26.915 24.5084 26.9422 24.2819 26.8526L20.153 23.7032L17.6588 25.9648L18.1828 22.6363C18.1828 22.6363 24.6503 16.639 24.9286 16.3811C25.207 16.1231 25.1142 16.0688 25.1142 16.0688C25.1333 15.7539 24.6939 15.9765 24.6939 15.9765L16.1879 21.2191L16.1852 21.2055L12.1082 19.8399V19.8372C12.1055 19.8372 12.1 19.8345 12.0973 19.8345C12.1 19.8345 12.1191 19.8263 12.1191 19.8263L12.141 19.8155L12.1628 19.8073C12.1628 19.8073 15.8032 18.2815 19.5036 16.7313C21.3565 15.9548 23.2231 15.1729 24.6585 14.5702C26.0939 13.9702 27.1554 13.5304 27.2154 13.5059C27.2728 13.4842 27.2455 13.4842 27.2864 13.4842Z" fill="white"/>
</g>
<defs>
<clipPath id="clip0_245_7725">
<rect width="39.6828" height="39.6828" fill="white" transform="translate(0.166992 0.137024)"/>
</clipPath>
</defs>
</svg>
