<svg width="23" height="23" viewBox="0 0 23 23" fill="none" xmlns="http://www.w3.org/2000/svg">
<g clip-path="url(#clip0_540_2289)">
<circle cx="11.3496" cy="11.7266" r="11.3496" fill="#07C3EC"/>
<path d="M15.5532 7.08705C15.419 7.09326 15.2926 7.13208 15.1802 7.17557H15.1786C15.0646 7.2206 14.523 7.44734 13.7004 7.79055C12.8777 8.13531 11.81 8.58257 10.7501 9.02673C8.63341 9.91348 6.55263 10.7863 6.55263 10.7863L6.5776 10.7769C6.5776 10.7769 6.43399 10.8235 6.28414 10.926C6.20765 10.9757 6.12336 11.0441 6.04999 11.1512C5.97663 11.2584 5.91731 11.423 5.93916 11.5923C5.97506 11.8796 6.16238 12.0519 6.29663 12.1467C6.43243 12.243 6.56199 12.288 6.56199 12.288H6.56511L8.51634 12.9418C8.60375 13.2213 9.11107 14.8799 9.23283 15.262C9.30463 15.4903 9.37488 15.6331 9.46229 15.7418C9.50444 15.7978 9.55439 15.8443 9.61371 15.8816C9.63712 15.8956 9.6621 15.9065 9.68707 15.9158C9.69488 15.9204 9.70268 15.922 9.71205 15.9235L9.69176 15.9189C9.698 15.9204 9.70268 15.9251 9.70737 15.9267C9.72298 15.9313 9.7339 15.9329 9.7542 15.936C10.0633 16.0291 10.3115 15.8381 10.3115 15.8381L10.3255 15.8273L11.4775 14.7837L13.4084 16.2574L13.4522 16.2761C13.8549 16.4516 14.2623 16.3537 14.4777 16.1813C14.6947 16.0074 14.779 15.7853 14.779 15.7853L14.793 15.7496L16.2853 8.14463C16.3275 7.95672 16.3384 7.78123 16.2916 7.6104C16.2447 7.43957 16.1246 7.27962 15.9794 7.1942C15.8326 7.10724 15.6875 7.08083 15.5532 7.08705ZM15.5126 7.90236C15.5111 7.92721 15.5158 7.92411 15.5048 7.97225V7.97691L14.0266 15.5027C14.0204 15.5136 14.0094 15.5369 13.9798 15.5601C13.9485 15.585 13.9236 15.6005 13.794 15.5493L11.4322 13.7478L10.0055 15.0414L10.3052 13.1375C10.3052 13.1375 14.0047 9.70694 14.164 9.5594C14.3232 9.41187 14.2701 9.38081 14.2701 9.38081C14.281 9.20066 14.0297 9.32801 14.0297 9.32801L9.16415 12.3268L9.16258 12.3191L6.83048 11.5379V11.5364C6.82892 11.5364 6.8258 11.5348 6.82424 11.5348C6.8258 11.5348 6.83673 11.5301 6.83673 11.5301L6.84921 11.5239L6.8617 11.5193C6.8617 11.5193 8.94405 10.6465 11.0607 9.75974C12.1206 9.31558 13.1884 8.86832 14.0094 8.52356C14.8305 8.18035 15.4377 7.92877 15.4721 7.91479C15.5048 7.90236 15.4892 7.90236 15.5126 7.90236Z" fill="white"/>
</g>
<defs>
<clipPath id="clip0_540_2289">
<rect width="22.6992" height="22.6992" fill="white" transform="translate(0 0.267578)"/>
</clipPath>
</defs>
</svg>
