<svg width="100" height="55" viewBox="0 0 100 55" fill="none" xmlns="http://www.w3.org/2000/svg">
<g opacity="0.15">
<path d="M15.9598 1.01417L26.375 38.4938H26.7718L37.1869 1.01417H52.7601L35.9966 54.1709H17.1502L0.386719 1.01417H15.9598Z" fill="white"/>
<path d="M85.7267 17.6257C85.5945 15.8953 84.9745 14.5456 83.8669 13.5766C82.7758 12.6076 81.1143 12.1231 78.8825 12.1231C77.4607 12.1231 76.2952 12.3048 75.386 12.6682C74.4932 13.0142 73.832 13.4901 73.4021 14.0957C72.9723 14.7013 72.7491 15.3935 72.7326 16.1722C72.6995 16.8124 72.807 17.3921 73.055 17.9112C73.3195 18.413 73.7328 18.8715 74.2949 19.2868C74.8569 19.6848 75.5761 20.0482 76.4523 20.3769C77.3285 20.7057 78.37 20.9999 79.5768 21.2594L83.7429 22.1938C86.5533 22.8167 88.9587 23.6387 90.9591 24.6596C92.9595 25.6805 94.5961 26.8831 95.8691 28.2674C97.1421 29.6344 98.0761 31.1744 98.6713 32.8875C99.283 34.6005 99.5971 36.4693 99.6136 38.4938C99.5971 41.9892 98.7622 44.9481 97.109 47.3706C95.4558 49.7931 93.0917 51.636 90.0168 52.8991C86.9584 54.1623 83.28 54.7939 78.9817 54.7939C74.5676 54.7939 70.7157 54.1104 67.4258 52.7434C64.1525 51.3764 61.6066 49.274 59.788 46.4362C57.9861 43.5811 57.0768 39.93 57.0603 35.483H70.1536C70.2363 37.1096 70.6248 38.4765 71.3191 39.584C72.0135 40.6914 72.9888 41.5306 74.2453 42.1017C75.5182 42.6727 77.0309 42.9582 78.7833 42.9582C80.2546 42.9582 81.4863 42.7678 82.4782 42.3872C83.4701 42.0065 84.2223 41.4787 84.7348 40.8039C85.2473 40.129 85.5118 39.359 85.5284 38.4938C85.5118 37.6806 85.2556 36.9711 84.7596 36.3655C84.2802 35.7426 83.4866 35.1889 82.379 34.7043C81.2714 34.2025 79.7752 33.7353 77.8906 33.3028L72.8318 32.1607C68.3351 31.1398 64.789 29.4354 62.1934 27.0475C59.6145 24.6423 58.3332 21.3632 58.3498 17.2104C58.3332 13.8362 59.1929 10.8859 60.9287 8.35956C62.6811 5.81593 65.1031 3.83466 68.1946 2.41576C71.3026 0.996864 74.8652 0.287415 78.8825 0.287415C82.9824 0.287415 86.5285 1.00552 89.5208 2.44172C92.5131 3.87792 94.8193 5.90244 96.4395 8.5153C98.0761 11.1108 98.9027 14.1476 98.9193 17.6257H85.7267Z" fill="white"/>
</g>
</svg>
